<?xml version="1.0" encoding="utf-8"?>
<!-- Generator: Adobe Illustrator 24.0.1, SVG Export Plug-In . SVG Version: 6.00 Build 0)  -->
<svg version="1.1" xmlns="http://www.w3.org/2000/svg" xmlns:xlink="http://www.w3.org/1999/xlink" x="0px" y="0px"
	 viewBox="0 0 1000 1200" style="enable-background:new 0 0 1000 1200;" xml:space="preserve">
<style type="text/css">
	.st0{display:none;}
	.st1{display:inline;opacity:0.15;fill:#00AEEF;}
	.st2{display:inline;opacity:0.15;fill:#FBB040;}
	.st3{display:inline;fill:#E6E7E8;}
	.st4{display:inline;fill:none;stroke:#EF4136;stroke-width:3;stroke-miterlimit:10;}
	.st5{display:inline;fill:none;stroke:#FBB040;stroke-width:3;stroke-miterlimit:10;}
	.st6{display:inline;fill:none;stroke:#FFF200;stroke-width:3;stroke-miterlimit:10;}
	.st7{display:inline;fill:none;stroke:#1B75BC;stroke-width:3;stroke-miterlimit:10;}
	.st8{display:inline;fill:none;stroke:#00AEEF;stroke-width:3;stroke-miterlimit:10;}
	.st9{display:inline;fill:none;stroke:#919395;stroke-width:3;stroke-miterlimit:10;}
	.st10{fill:none;stroke:#FFF200;stroke-width:3;stroke-miterlimit:10;}
	.st11{fill:none;stroke:#1B75BC;stroke-width:3;stroke-miterlimit:10;}
	.st12{fill:none;stroke:#00AEEF;stroke-width:3;stroke-miterlimit:10;}
	.st13{fill:none;stroke:#919395;stroke-width:3;stroke-miterlimit:10;}
</style>
<g id="Sections" class="st0">
	<rect x="-1142.52" y="-1270.41" class="st1" width="1000" height="50"/>
	<rect x="-1142.52" y="-510.41" class="st2" width="1000" height="240"/>
	<rect x="-1142.52" y="-1470.41" class="st3" width="1000" height="200"/>
	<rect y="-1270.41" class="st1" width="1000" height="50"/>
	<rect y="-510.41" class="st2" width="1000" height="240"/>
	<rect y="-1470.41" class="st3" width="1000" height="200"/>
	<rect x="1123.5" y="-1270.41" class="st1" width="1000" height="50"/>
	<rect x="1123.5" y="-510.41" class="st2" width="1000" height="240"/>
	<rect x="1123.5" y="-1470.41" class="st3" width="1000" height="200"/>
	<rect x="1123.5" y="-4046.41" class="st1" width="1000" height="50"/>
	<rect x="1123.5" y="-3286.41" class="st2" width="1000" height="240"/>
	<rect x="1123.5" y="-4246.41" class="st3" width="1000" height="200"/>
	<rect x="-8.11" y="-4046.41" class="st1" width="1000" height="50"/>
	<rect x="-8.11" y="-3286.41" class="st2" width="1000" height="240"/>
	<rect x="-8.11" y="-4246.41" class="st3" width="1000" height="200"/>
	<rect x="-2293.94" y="-4046.41" class="st1" width="1000" height="50"/>
	<rect x="-2293.94" y="-3286.41" class="st2" width="1000" height="240"/>
	<rect x="-2293.94" y="-4246.41" class="st3" width="1000" height="200"/>
	<rect x="-1142.52" y="-4046.41" class="st1" width="1000" height="50"/>
	<rect x="-1142.52" y="-3286.41" class="st2" width="1000" height="240"/>
	<rect x="-1142.52" y="-4246.41" class="st3" width="1000" height="200"/>
	<rect x="3402.5" y="-4046.41" class="st1" width="1000" height="50"/>
	<rect x="3402.5" y="-3286.41" class="st2" width="1000" height="240"/>
	<rect x="3402.5" y="-4246.41" class="st3" width="1000" height="200"/>
	<rect x="4552" y="-4046.41" class="st1" width="1000" height="50"/>
	<rect x="4552" y="-3286.41" class="st2" width="1000" height="240"/>
	<rect x="4552" y="-4246.41" class="st3" width="1000" height="200"/>
	<rect x="2263" y="-4046.41" class="st1" width="1000" height="50"/>
	<rect x="2263" y="-3286.41" class="st2" width="1000" height="240"/>
	<rect x="2263" y="-4246.41" class="st3" width="1000" height="200"/>
	<rect x="5684.47" y="-4046.41" class="st1" width="1000" height="50"/>
	<rect x="5684.47" y="-3286.41" class="st2" width="1000" height="240"/>
	<rect x="5684.47" y="-4246.41" class="st3" width="1000" height="200"/>
	<rect x="6825" y="-4046.41" class="st1" width="1000" height="50"/>
	<rect x="6825" y="-3286.41" class="st2" width="1000" height="240"/>
	<rect x="6825" y="-4246.41" class="st3" width="1000" height="200"/>
	<rect x="7956.5" y="-4046.41" class="st1" width="1000" height="50"/>
	<rect x="7956.5" y="-3286.41" class="st2" width="1000" height="240"/>
	<rect x="7956.5" y="-4246.41" class="st3" width="1000" height="200"/>
	<rect x="9082.73" y="-4046.41" class="st1" width="1000" height="50"/>
	<rect x="9082.73" y="-3286.41" class="st2" width="1000" height="240"/>
	<rect x="9082.73" y="-4246.41" class="st3" width="1000" height="200"/>
	<rect x="5684.47" y="-1270.41" class="st1" width="1000" height="50"/>
	<rect x="5684.47" y="-510.41" class="st2" width="1000" height="240"/>
	<rect x="5684.47" y="-1470.41" class="st3" width="1000" height="200"/>
	<rect x="6817.52" y="-1270.41" class="st1" width="1000" height="50"/>
	<rect x="6817.52" y="-510.41" class="st2" width="1000" height="240"/>
	<rect x="6817.52" y="-1470.41" class="st3" width="1000" height="200"/>
	<rect x="7956.5" y="-1270.41" class="st1" width="1000" height="50"/>
	<rect x="7956.5" y="-510.41" class="st2" width="1000" height="240"/>
	<rect x="7956.5" y="-1470.41" class="st3" width="1000" height="200"/>
	<rect x="4552" y="-1270.41" class="st1" width="1000" height="50"/>
	<rect x="4552" y="-510.41" class="st2" width="1000" height="240"/>
	<rect x="4552" y="-1470.41" class="st3" width="1000" height="200"/>
	<rect x="10245.07" y="-1270.41" class="st1" width="1000" height="50"/>
	<rect x="10245.07" y="-510.41" class="st2" width="1000" height="240"/>
	<rect x="10245.07" y="-1470.41" class="st3" width="1000" height="200"/>
	<rect x="3402.5" y="-1270.41" class="st1" width="1000" height="50"/>
	<rect x="3402.5" y="-510.41" class="st2" width="1000" height="240"/>
	<rect x="3402.5" y="-1470.41" class="st3" width="1000" height="200"/>
	<rect x="9082.73" y="-1270.41" class="st1" width="1000" height="50"/>
	<rect x="9082.73" y="-510.41" class="st2" width="1000" height="240"/>
	<rect x="9082.73" y="-1470.41" class="st3" width="1000" height="200"/>
	<rect x="1126.37" y="-5427.06" class="st1" width="1000" height="50"/>
	<rect x="1126.37" y="-4667.06" class="st2" width="1000" height="240"/>
	<rect x="1126.37" y="-5627.06" class="st3" width="1000" height="200"/>
	<rect y="-5427.06" class="st1" width="1000" height="50"/>
	<rect y="-4667.06" class="st2" width="1000" height="240"/>
	<rect y="-5627.06" class="st3" width="1000" height="200"/>
	<rect x="-2293.94" y="-5427.06" class="st1" width="1000" height="50"/>
	<rect x="-2293.94" y="-4667.06" class="st2" width="1000" height="240"/>
	<rect x="-2293.94" y="-5627.06" class="st3" width="1000" height="200"/>
	<rect x="-1155.07" y="-5427.06" class="st1" width="1000" height="50"/>
	<rect x="-1155.07" y="-4667.06" class="st2" width="1000" height="240"/>
	<rect x="-1155.07" y="-5627.06" class="st3" width="1000" height="200"/>
	<rect x="3402.5" y="-5427.06" class="st1" width="1000" height="50"/>
	<rect x="3402.5" y="-4667.06" class="st2" width="1000" height="240"/>
	<rect x="3402.5" y="-5627.06" class="st3" width="1000" height="200"/>
	<rect x="4552" y="-5427.06" class="st1" width="1000" height="50"/>
	<rect x="4552" y="-4667.06" class="st2" width="1000" height="240"/>
	<rect x="4552" y="-5627.06" class="st3" width="1000" height="200"/>
	<rect x="2263" y="-5427.06" class="st1" width="1000" height="50"/>
	<rect x="2263" y="-4667.06" class="st2" width="1000" height="240"/>
	<rect x="2263" y="-5627.06" class="st3" width="1000" height="200"/>
	<rect x="5684.47" y="-5427.06" class="st1" width="1000" height="50"/>
	<rect x="5684.47" y="-4667.06" class="st2" width="1000" height="240"/>
	<rect x="5684.47" y="-5627.06" class="st3" width="1000" height="200"/>
	<rect x="6825" y="-5427.06" class="st1" width="1000" height="50"/>
	<rect x="6825" y="-4667.06" class="st2" width="1000" height="240"/>
	<rect x="6825" y="-5627.06" class="st3" width="1000" height="200"/>
	<rect x="7956.5" y="-5427.06" class="st1" width="1000" height="50"/>
	<rect x="7956.5" y="-4667.06" class="st2" width="1000" height="240"/>
	<rect x="7956.5" y="-5627.06" class="st3" width="1000" height="200"/>
	<rect x="9082.73" y="-5427.06" class="st1" width="1000" height="50"/>
	<rect x="9082.73" y="-4667.06" class="st2" width="1000" height="240"/>
	<rect x="9082.73" y="-5627.06" class="st3" width="1000" height="200"/>
	<rect x="5684.47" y="-2647.04" class="st1" width="1000" height="50"/>
	<rect x="5684.47" y="-1887.04" class="st2" width="1000" height="240"/>
	<rect x="5684.47" y="-2847.04" class="st3" width="1000" height="200"/>
	<rect x="6825" y="-2647.04" class="st1" width="1000" height="50"/>
	<rect x="6825" y="-1887.04" class="st2" width="1000" height="240"/>
	<rect x="6825" y="-2847.04" class="st3" width="1000" height="200"/>
	<rect x="7956.5" y="-2647.04" class="st1" width="1000" height="50"/>
	<rect x="7956.5" y="-1887.04" class="st2" width="1000" height="240"/>
	<rect x="7956.5" y="-2847.04" class="st3" width="1000" height="200"/>
	<rect x="4552" y="-2647.04" class="st1" width="1000" height="50"/>
	<rect x="4552" y="-1887.04" class="st2" width="1000" height="240"/>
	<rect x="4552" y="-2847.04" class="st3" width="1000" height="200"/>
	<rect x="10245.07" y="-2647.04" class="st1" width="1000" height="50"/>
	<rect x="10245.07" y="-1887.04" class="st2" width="1000" height="240"/>
	<rect x="10245.07" y="-2847.04" class="st3" width="1000" height="200"/>
	<rect x="3402.5" y="-2647.04" class="st1" width="1000" height="50"/>
	<rect x="3402.5" y="-1887.04" class="st2" width="1000" height="240"/>
	<rect x="3402.5" y="-2847.04" class="st3" width="1000" height="200"/>
	<rect x="9082.73" y="-2647.04" class="st1" width="1000" height="50"/>
	<rect x="9082.73" y="-1887.04" class="st2" width="1000" height="240"/>
	<rect x="9082.73" y="-2847.04" class="st3" width="1000" height="200"/>
	<rect x="-1142.52" y="-2647.04" class="st1" width="1000" height="50"/>
	<rect x="-1142.52" y="-2847.04" class="st3" width="1000" height="200"/>
	<rect x="-1142.52" y="-1887.04" class="st2" width="1000" height="240"/>
	<rect y="-2647.04" class="st1" width="1000" height="50"/>
	<rect y="-2847.04" class="st3" width="1000" height="200"/>
	<rect y="-1887.04" class="st2" width="1000" height="240"/>
	<rect x="1123.5" y="-2647.04" class="st1" width="1000" height="50"/>
	<rect x="1123.5" y="-2847.04" class="st3" width="1000" height="200"/>
	<rect x="1123.5" y="-1887.04" class="st2" width="1000" height="240"/>
	<rect x="2263" y="-2647.04" class="st1" width="1000" height="50"/>
	<rect x="2263" y="-2847.04" class="st3" width="1000" height="200"/>
	<rect x="2263" y="-1887.04" class="st2" width="1000" height="240"/>
	<rect x="2263" y="-1270.41" class="st1" width="1000" height="50"/>
	<rect x="2263" y="-1470.41" class="st3" width="1000" height="200"/>
	<rect x="2263" y="-510.41" class="st2" width="1000" height="240"/>
	<rect x="-2293.94" y="-2647.04" class="st1" width="1000" height="50"/>
	<rect x="-2293.94" y="-2847.04" class="st3" width="1000" height="200"/>
	<rect x="-2293.94" y="-1887.04" class="st2" width="1000" height="240"/>
	<rect x="-2293.94" y="200" class="st1" width="1000" height="50"/>
	<rect x="-2293.94" class="st3" width="1000" height="200"/>
	<rect x="-2293.94" y="960" class="st2" width="1000" height="240"/>
	<rect x="-1142.52" y="200" class="st1" width="1000" height="50"/>
	<rect x="-1142.52" class="st3" width="1000" height="200"/>
	<rect x="-1142.52" y="960" class="st2" width="1000" height="240"/>
	<rect y="200" class="st1" width="1000" height="50"/>
	<rect class="st3" width="1000" height="200"/>
	<rect y="960" class="st2" width="1000" height="240"/>
	<rect x="1126.37" y="200" class="st1" width="1000" height="50"/>
	<rect x="1126.37" class="st3" width="1000" height="200"/>
	<rect x="1126.37" y="960" class="st2" width="1000" height="240"/>
	<rect x="2263" y="200" class="st1" width="1000" height="50"/>
	<rect x="2263" class="st3" width="1000" height="200"/>
	<rect x="2263" y="960" class="st2" width="1000" height="240"/>
	<rect x="3402.5" y="200" class="st1" width="1000" height="50"/>
	<rect x="3402.5" class="st3" width="1000" height="200"/>
	<rect x="3402.5" y="960" class="st2" width="1000" height="240"/>
	<rect x="4552" y="200" class="st1" width="1000" height="50"/>
	<rect x="4552" class="st3" width="1000" height="200"/>
	<rect x="4552" y="960" class="st2" width="1000" height="240"/>
	<rect x="5684.47" y="200" class="st1" width="1000" height="50"/>
	<rect x="5684.47" class="st3" width="1000" height="200"/>
	<rect x="5684.47" y="960" class="st2" width="1000" height="240"/>
	<rect x="10245.07" y="-5427.06" class="st1" width="1000" height="50"/>
	<rect x="10245.07" y="-5627.06" class="st3" width="1000" height="200"/>
	<rect x="10245.07" y="-4667.06" class="st2" width="1000" height="240"/>
	<rect x="-2293.94" y="-1270.41" class="st1" width="1000" height="50"/>
	<rect x="-2293.94" y="-510.41" class="st2" width="1000" height="240"/>
	<rect x="-2293.94" y="-1470.41" class="st3" width="1000" height="200"/>
	<rect x="-2293.94" y="1565.81" class="st1" width="1000" height="50"/>
	<rect x="-2293.94" y="2325.81" class="st2" width="1000" height="240"/>
	<rect x="-2293.94" y="1365.81" class="st3" width="1000" height="200"/>
	<rect x="-1142.52" y="1565.81" class="st1" width="1000" height="50"/>
	<rect x="-1142.52" y="2325.81" class="st2" width="1000" height="240"/>
	<rect x="-1142.52" y="1365.81" class="st3" width="1000" height="200"/>
	<rect y="1565.81" class="st1" width="1000" height="50"/>
	<rect y="2325.81" class="st2" width="1000" height="240"/>
	<rect y="1365.81" class="st3" width="1000" height="200"/>
	<rect x="1126.37" y="1565.81" class="st1" width="1000" height="50"/>
	<rect x="1126.37" y="2325.81" class="st2" width="1000" height="240"/>
	<rect x="1126.37" y="1365.81" class="st3" width="1000" height="200"/>
	<rect x="2263" y="1565.81" class="st1" width="1000" height="50"/>
	<rect x="2263" y="2325.81" class="st2" width="1000" height="240"/>
	<rect x="2263" y="1365.81" class="st3" width="1000" height="200"/>
	<rect x="3402.5" y="1565.81" class="st1" width="1000" height="50"/>
	<rect x="3402.5" y="2325.81" class="st2" width="1000" height="240"/>
	<rect x="3402.5" y="1365.81" class="st3" width="1000" height="200"/>
	<rect x="4552" y="1565.81" class="st1" width="1000" height="50"/>
	<rect x="4552" y="2325.81" class="st2" width="1000" height="240"/>
	<rect x="4552" y="1365.81" class="st3" width="1000" height="200"/>
	<rect x="5684.47" y="1565.81" class="st1" width="1000" height="50"/>
	<rect x="5684.47" y="2325.81" class="st2" width="1000" height="240"/>
	<rect x="5684.47" y="1365.81" class="st3" width="1000" height="200"/>
	<rect x="10245.07" y="-4046.41" class="st1" width="1000" height="50"/>
	<rect x="10245.07" y="-3286.41" class="st2" width="1000" height="240"/>
	<rect x="10245.07" y="-4246.41" class="st3" width="1000" height="200"/>
</g>
<g id="Circles">
</g>
<g id="Icon_sizing" class="st0">
	<rect x="-918.4" y="-1140.97" class="st4" width="551.77" height="551.77"/>
	
		<rect x="-841.41" y="-1217.96" transform="matrix(-1 -1.224647e-16 1.224647e-16 -1 -1285.0392 -1730.1704)" class="st5" width="397.79" height="705.75"/>
	<rect x="-873.49" y="-1179.47" class="st6" width="461.95" height="628.76"/>
	
		<rect x="-841.41" y="-1217.96" transform="matrix(6.123234e-17 -1 1 6.123234e-17 222.5656 -1507.6049)" class="st7" width="397.79" height="705.75"/>
	
		<rect x="-873.49" y="-1179.47" transform="matrix(-1.836970e-16 1 -1 -1.836970e-16 -1507.6049 -222.5656)" class="st8" width="461.95" height="628.76"/>
	<circle class="st9" cx="-642.52" cy="-865.19" r="317.11"/>
	<rect x="2487.11" y="-1140.97" class="st4" width="551.77" height="551.77"/>
	
		<rect x="2564.11" y="-1217.96" transform="matrix(-1 -1.224647e-16 1.224647e-16 -1 5526 -1730.1704)" class="st5" width="397.79" height="705.75"/>
	<rect x="2532.03" y="-1179.47" class="st6" width="461.95" height="628.76"/>
	
		<rect x="2564.11" y="-1217.96" transform="matrix(6.123234e-17 -1 1 6.123234e-17 3628.0852 1897.9148)" class="st7" width="397.79" height="705.75"/>
	
		<rect x="2532.03" y="-1179.47" transform="matrix(-1.836970e-16 1 -1 -1.836970e-16 1897.9148 -3628.0852)" class="st8" width="461.95" height="628.76"/>
	<circle class="st9" cx="2763" cy="-865.19" r="317.11"/>
	<rect x="-2069.82" y="-1140.97" class="st4" width="551.77" height="551.77"/>
	
		<rect x="-1992.83" y="-1217.96" transform="matrix(-1 -1.224647e-16 1.224647e-16 -1 -3587.8794 -1730.1704)" class="st5" width="397.79" height="705.75"/>
	<rect x="-2024.91" y="-1179.47" class="st6" width="461.95" height="628.76"/>
	
		<rect x="-1992.83" y="-1217.96" transform="matrix(6.123234e-17 -1 1 6.123234e-17 -928.8544 -2659.0249)" class="st7" width="397.79" height="705.75"/>
	
		<rect x="-2024.91" y="-1179.47" transform="matrix(-1.836970e-16 1 -1 -1.836970e-16 -2659.0249 928.8544)" class="st8" width="461.95" height="628.76"/>
	<circle class="st9" cx="-1793.94" cy="-865.19" r="317.11"/>
	<rect x="-2069.82" y="1695.25" class="st4" width="551.77" height="551.77"/>
	
		<rect x="-1992.83" y="1618.26" transform="matrix(-1 -1.224647e-16 1.224647e-16 -1 -3587.8794 3942.2681)" class="st5" width="397.79" height="705.75"/>
	<rect x="-2024.91" y="1656.75" class="st6" width="461.95" height="628.76"/>
	
		<rect x="-1992.83" y="1618.26" transform="matrix(6.123234e-17 -1 1 6.123234e-17 -3765.0737 177.1944)" class="st7" width="397.79" height="705.75"/>
	
		<rect x="-2024.91" y="1656.75" transform="matrix(-1.836970e-16 1 -1 -1.836970e-16 177.1944 3765.0737)" class="st8" width="461.95" height="628.76"/>
	<circle class="st9" cx="-1793.94" cy="1971.03" r="317.11"/>
	<rect x="-918.4" y="1695.25" class="st4" width="551.77" height="551.77"/>
	
		<rect x="-841.41" y="1618.26" transform="matrix(-1 -1.224647e-16 1.224647e-16 -1 -1285.0392 3942.2681)" class="st5" width="397.79" height="705.75"/>
	<rect x="-873.49" y="1656.75" class="st6" width="461.95" height="628.76"/>
	
		<rect x="-841.41" y="1618.26" transform="matrix(6.123234e-17 -1 1 6.123234e-17 -2613.6536 1328.6145)" class="st7" width="397.79" height="705.75"/>
	
		<rect x="-873.49" y="1656.75" transform="matrix(-1.836970e-16 1 -1 -1.836970e-16 1328.6145 2613.6536)" class="st8" width="461.95" height="628.76"/>
	<circle class="st9" cx="-642.52" cy="1971.03" r="317.11"/>
	<rect x="224.11" y="1695.25" class="st4" width="551.77" height="551.77"/>
	
		<rect x="301.11" y="1618.26" transform="matrix(-1 -1.224647e-16 1.224647e-16 -1 1000 3942.2681)" class="st5" width="397.79" height="705.75"/>
	<rect x="269.03" y="1656.75" class="st6" width="461.95" height="628.76"/>
	
		<rect x="301.11" y="1618.26" transform="matrix(6.123234e-17 -1 1 6.123234e-17 -1471.134 2471.134)" class="st7" width="397.79" height="705.75"/>
	
		<rect x="269.03" y="1656.75" transform="matrix(-1.836970e-16 1 -1 -1.836970e-16 2471.134 1471.134)" class="st8" width="461.95" height="628.76"/>
	<circle class="st9" cx="500" cy="1971.03" r="317.11"/>
	<rect x="1350.49" y="1695.25" class="st4" width="551.77" height="551.77"/>
	
		<rect x="1427.48" y="1618.26" transform="matrix(-1 -1.224647e-16 1.224647e-16 -1 3252.7466 3942.2681)" class="st5" width="397.79" height="705.75"/>
	<rect x="1395.4" y="1656.75" class="st6" width="461.95" height="628.76"/>
	
		<rect x="1427.48" y="1618.26" transform="matrix(6.123234e-17 -1 1 6.123234e-17 -344.7607 3597.5073)" class="st7" width="397.79" height="705.75"/>
	
		<rect x="1395.4" y="1656.75" transform="matrix(-1.836970e-16 1 -1 -1.836970e-16 3597.5073 344.7607)" class="st8" width="461.95" height="628.76"/>
	<circle class="st9" cx="1626.37" cy="1971.03" r="317.11"/>
	<rect x="2487.11" y="1695.25" class="st4" width="551.77" height="551.77"/>
	
		<rect x="2564.11" y="1618.26" transform="matrix(-1 -1.224647e-16 1.224647e-16 -1 5526 3942.2681)" class="st5" width="397.79" height="705.75"/>
	<rect x="2532.03" y="1656.75" class="st6" width="461.95" height="628.76"/>
	
		<rect x="2564.11" y="1618.26" transform="matrix(6.123234e-17 -1 1 6.123234e-17 791.866 4734.1343)" class="st7" width="397.79" height="705.75"/>
	
		<rect x="2532.03" y="1656.75" transform="matrix(-1.836970e-16 1 -1 -1.836970e-16 4734.1343 -791.866)" class="st8" width="461.95" height="628.76"/>
	<circle class="st9" cx="2763" cy="1971.03" r="317.11"/>
	<rect x="3626.61" y="1695.25" class="st4" width="551.77" height="551.77"/>
	
		<rect x="3703.61" y="1618.26" transform="matrix(-1 -1.224647e-16 1.224647e-16 -1 7805 3942.2681)" class="st5" width="397.79" height="705.75"/>
	<rect x="3671.53" y="1656.75" class="st6" width="461.95" height="628.76"/>
	
		<rect x="3703.61" y="1618.26" transform="matrix(6.123234e-17 -1 1 6.123234e-17 1931.366 5873.6343)" class="st7" width="397.79" height="705.75"/>
	
		<rect x="3671.53" y="1656.75" transform="matrix(-1.836970e-16 1 -1 -1.836970e-16 5873.6343 -1931.366)" class="st8" width="461.95" height="628.76"/>
	<circle class="st9" cx="3902.5" cy="1971.03" r="317.11"/>
	<rect x="4776.11" y="1695.25" class="st4" width="551.77" height="551.77"/>
	
		<rect x="4853.11" y="1618.26" transform="matrix(-1 -1.224647e-16 1.224647e-16 -1 10104 3942.2681)" class="st5" width="397.79" height="705.75"/>
	<rect x="4821.03" y="1656.75" class="st6" width="461.95" height="628.76"/>
	
		<rect x="4853.11" y="1618.26" transform="matrix(6.123234e-17 -1 1 6.123234e-17 3080.866 7023.1343)" class="st7" width="397.79" height="705.75"/>
	
		<rect x="4821.03" y="1656.75" transform="matrix(-1.836970e-16 1 -1 -1.836970e-16 7023.1343 -3080.866)" class="st8" width="461.95" height="628.76"/>
	<circle class="st9" cx="5052" cy="1971.03" r="317.11"/>
	<rect x="5908.58" y="1695.25" class="st4" width="551.77" height="551.77"/>
	
		<rect x="5985.57" y="1618.26" transform="matrix(-1 -1.224647e-16 1.224647e-16 -1 12368.9307 3942.2681)" class="st5" width="397.79" height="705.75"/>
	<rect x="5953.49" y="1656.75" class="st6" width="461.95" height="628.76"/>
	
		<rect x="5985.57" y="1618.26" transform="matrix(6.123234e-17 -1 1 6.123234e-17 4213.3311 8155.5991)" class="st7" width="397.79" height="705.75"/>
	
		<rect x="5953.49" y="1656.75" transform="matrix(-1.836970e-16 1 -1 -1.836970e-16 8155.5991 -4213.3311)" class="st8" width="461.95" height="628.76"/>
	<circle class="st9" cx="6184.47" cy="1971.03" r="317.11"/>
	<rect x="10469.19" y="-3916.97" class="st4" width="551.77" height="551.77"/>
	
		<rect x="10546.18" y="-3993.96" transform="matrix(-1 -1.224647e-16 1.224647e-16 -1 21490.1465 -7282.1704)" class="st5" width="397.79" height="705.75"/>
	<rect x="10514.1" y="-3955.47" class="st6" width="461.95" height="628.76"/>
	
		<rect x="10546.18" y="-3993.96" transform="matrix(6.123234e-17 -1 1 6.123234e-17 14386.1582 7103.9878)" class="st7" width="397.79" height="705.75"/>
	
		<rect x="10514.1" y="-3955.47" transform="matrix(-1.836970e-16 1 -1 -1.836970e-16 7103.9878 -14386.1582)" class="st8" width="461.95" height="628.76"/>
	<circle class="st9" cx="10745.07" cy="-3641.19" r="317.11"/>
	<rect x="224.11" y="-1140.97" class="st4" width="551.77" height="551.77"/>
	
		<rect x="301.11" y="-1217.96" transform="matrix(-1 -1.224647e-16 1.224647e-16 -1 1000 -1730.1704)" class="st5" width="397.79" height="705.75"/>
	<rect x="269.03" y="-1179.47" class="st6" width="461.95" height="628.76"/>
	
		<rect x="301.11" y="-1217.96" transform="matrix(6.123234e-17 -1 1 6.123234e-17 1365.0852 -365.0852)" class="st7" width="397.79" height="705.75"/>
	
		<rect x="269.03" y="-1179.47" transform="matrix(-1.836970e-16 1 -1 -1.836970e-16 -365.0852 -1365.0852)" class="st8" width="461.95" height="628.76"/>
	<circle class="st9" cx="500" cy="-865.19" r="317.11"/>
	<rect x="1347.61" y="-1140.97" class="st4" width="551.77" height="551.77"/>
	
		<rect x="1424.61" y="-1217.96" transform="matrix(-1 -1.224647e-16 1.224647e-16 -1 3247 -1730.1704)" class="st5" width="397.79" height="705.75"/>
	<rect x="1392.53" y="-1179.47" class="st6" width="461.95" height="628.76"/>
	
		<rect x="1424.61" y="-1217.96" transform="matrix(6.123234e-17 -1 1 6.123234e-17 2488.5852 758.4148)" class="st7" width="397.79" height="705.75"/>
	
		<rect x="1392.53" y="-1179.47" transform="matrix(-1.836970e-16 1 -1 -1.836970e-16 758.4148 -2488.5852)" class="st8" width="461.95" height="628.76"/>
	<circle class="st9" cx="1623.5" cy="-865.19" r="317.11"/>
	
		<rect x="-924.48" y="-2668.86" transform="matrix(6.123234e-17 -1 1 6.123234e-17 1526.2035 -2811.5205)" class="st7" width="563.64" height="1000"/>
	<rect x="-1022.52" y="-2646.96" class="st4" width="759.72" height="759.72"/>
	<rect x="-969.93" y="-2687.6" class="st6" width="654.55" height="890.91"/>
	
		<rect x="-924.48" y="-2747.88" transform="matrix(-1 -1.224647e-16 1.224647e-16 -1 -1285.317 -4495.7544)" class="st5" width="563.64" height="1000"/>
	
		<rect x="-969.93" y="-2659.77" transform="matrix(-1.836970e-16 1 -1 -1.836970e-16 -2856.9751 -1571.6581)" class="st8" width="654.55" height="890.91"/>
	<circle class="st9" cx="-642.66" cy="-2242.58" r="474.59"/>
	
		<rect x="2481.04" y="-2668.86" transform="matrix(6.123234e-17 -1 1 6.123234e-17 4931.7231 593.9991)" class="st7" width="563.64" height="1000"/>
	<rect x="2383" y="-2646.96" class="st4" width="759.72" height="759.72"/>
	<rect x="2435.59" y="-2687.6" class="st6" width="654.55" height="890.91"/>
	
		<rect x="2481.04" y="-2747.88" transform="matrix(-1 -1.224647e-16 1.224647e-16 -1 5525.7222 -4495.7544)" class="st5" width="563.64" height="1000"/>
	
		<rect x="2435.59" y="-2659.77" transform="matrix(-1.836970e-16 1 -1 -1.836970e-16 548.5446 -4977.1777)" class="st8" width="654.55" height="890.91"/>
	<circle class="st9" cx="2762.86" cy="-2242.58" r="474.59"/>
	
		<rect x="-2075.9" y="-2668.86" transform="matrix(6.123234e-17 -1 1 6.123234e-17 374.7834 -3962.9404)" class="st7" width="563.64" height="1000"/>
	<rect x="-2173.94" y="-2646.96" class="st4" width="759.72" height="759.72"/>
	<rect x="-2121.35" y="-2687.6" class="st6" width="654.55" height="890.91"/>
	
		<rect x="-2075.9" y="-2747.88" transform="matrix(-1 -1.224647e-16 1.224647e-16 -1 -3588.157 -4495.7544)" class="st5" width="563.64" height="1000"/>
	
		<rect x="-2121.35" y="-2659.77" transform="matrix(-1.836970e-16 1 -1 -1.836970e-16 -4008.395 -420.238)" class="st8" width="654.55" height="890.91"/>
	<circle class="st9" cx="-1794.08" cy="-2242.58" r="474.59"/>
	
		<rect x="-2075.9" y="178.18" transform="matrix(6.123234e-17 -1 1 6.123234e-17 -2472.2603 -1115.8967)" class="st7" width="563.64" height="1000"/>
	<rect x="-2173.94" y="200.08" class="st4" width="759.72" height="759.72"/>
	<rect x="-2121.35" y="159.44" class="st6" width="654.55" height="890.91"/>
	
		<rect x="-2075.9" y="99.17" transform="matrix(-1 -1.224647e-16 1.224647e-16 -1 -3588.157 1198.3334)" class="st5" width="563.64" height="1000"/>
	
		<rect x="-2121.35" y="187.27" transform="matrix(-1.836970e-16 1 -1 -1.836970e-16 -1161.3513 2426.8059)" class="st8" width="654.55" height="890.91"/>
	<circle class="st9" cx="-1794.08" cy="604.46" r="474.59"/>
	
		<rect x="-924.48" y="178.18" transform="matrix(6.123234e-17 -1 1 6.123234e-17 -1320.8403 35.5233)" class="st7" width="563.64" height="1000"/>
	<rect x="-1022.52" y="200.08" class="st4" width="759.72" height="759.72"/>
	<rect x="-969.93" y="159.44" class="st6" width="654.55" height="890.91"/>
	
		<rect x="-924.48" y="99.17" transform="matrix(-1 -1.224647e-16 1.224647e-16 -1 -1285.317 1198.3334)" class="st5" width="563.64" height="1000"/>
	
		<rect x="-969.93" y="187.27" transform="matrix(-1.836970e-16 1 -1 -1.836970e-16 -9.9312 1275.3857)" class="st8" width="654.55" height="890.91"/>
	<circle class="st9" cx="-642.66" cy="604.46" r="474.59"/>
	
		<rect x="218.04" y="178.18" transform="matrix(6.123234e-17 -1 1 6.123234e-17 -178.3207 1178.043)" class="st7" width="563.64" height="1000"/>
	<rect x="120" y="200.08" class="st4" width="759.72" height="759.72"/>
	<rect x="172.59" y="159.44" class="st6" width="654.55" height="890.91"/>
	
		<rect x="218.04" y="99.17" transform="matrix(-1 -1.224647e-16 1.224647e-16 -1 999.7222 1198.3334)" class="st5" width="563.64" height="1000"/>
	
		<rect x="172.59" y="187.27" transform="matrix(-1.836970e-16 1 -1 -1.836970e-16 1132.5884 132.8662)" class="st8" width="654.55" height="890.91"/>
	<circle class="st9" cx="499.86" cy="604.46" r="474.59"/>
	
		<rect x="1344.42" y="178.18" transform="matrix(6.123234e-17 -1 1 6.123234e-17 948.0526 2304.4163)" class="st7" width="563.64" height="1000"/>
	<rect x="1246.37" y="200.08" class="st4" width="759.72" height="759.72"/>
	<rect x="1298.96" y="159.44" class="st6" width="654.55" height="890.91"/>
	
		<rect x="1344.42" y="99.17" transform="matrix(-1 -1.224647e-16 1.224647e-16 -1 3252.4688 1198.3334)" class="st5" width="563.64" height="1000"/>
	
		<rect x="1298.96" y="187.27" transform="matrix(-1.836970e-16 1 -1 -1.836970e-16 2258.9617 -993.5071)" class="st8" width="654.55" height="890.91"/>
	<circle class="st9" cx="1626.23" cy="604.46" r="474.59"/>
	
		<rect x="2481.04" y="178.18" transform="matrix(6.123234e-17 -1 1 6.123234e-17 2084.6792 3441.043)" class="st7" width="563.64" height="1000"/>
	<rect x="2383" y="200.08" class="st4" width="759.72" height="759.72"/>
	<rect x="2435.59" y="159.44" class="st6" width="654.55" height="890.91"/>
	
		<rect x="2481.04" y="99.17" transform="matrix(-1 -1.224647e-16 1.224647e-16 -1 5525.7222 1198.3334)" class="st5" width="563.64" height="1000"/>
	
		<rect x="2435.59" y="187.27" transform="matrix(-1.836970e-16 1 -1 -1.836970e-16 3395.5884 -2130.1338)" class="st8" width="654.55" height="890.91"/>
	<circle class="st9" cx="2762.86" cy="604.46" r="474.59"/>
	
		<rect x="3620.54" y="178.18" transform="matrix(6.123234e-17 -1 1 6.123234e-17 3224.1792 4580.543)" class="st7" width="563.64" height="1000"/>
	<rect x="3522.5" y="200.08" class="st4" width="759.72" height="759.72"/>
	<rect x="3575.09" y="159.44" class="st6" width="654.55" height="890.91"/>
	
		<rect x="3620.54" y="99.17" transform="matrix(-1 -1.224647e-16 1.224647e-16 -1 7804.7222 1198.3334)" class="st5" width="563.64" height="1000"/>
	
		<rect x="3575.09" y="187.27" transform="matrix(-1.836970e-16 1 -1 -1.836970e-16 4535.0884 -3269.6338)" class="st8" width="654.55" height="890.91"/>
	<circle class="st9" cx="3902.36" cy="604.46" r="474.59"/>
	
		<rect x="4770.04" y="178.18" transform="matrix(6.123234e-17 -1 1 6.123234e-17 4373.6792 5730.043)" class="st7" width="563.64" height="1000"/>
	<rect x="4672" y="200.08" class="st4" width="759.72" height="759.72"/>
	<rect x="4724.59" y="159.44" class="st6" width="654.55" height="890.91"/>
	
		<rect x="4770.04" y="99.17" transform="matrix(-1 -1.224647e-16 1.224647e-16 -1 10103.7227 1198.3334)" class="st5" width="563.64" height="1000"/>
	
		<rect x="4724.59" y="187.27" transform="matrix(-1.836970e-16 1 -1 -1.836970e-16 5684.5884 -4419.1338)" class="st8" width="654.55" height="890.91"/>
	<circle class="st9" cx="5051.86" cy="604.46" r="474.59"/>
	
		<rect x="5902.51" y="178.18" transform="matrix(6.123234e-17 -1 1 6.123234e-17 5506.1445 6862.5078)" class="st7" width="563.64" height="1000"/>
	<rect x="5804.46" y="200.08" class="st4" width="759.72" height="759.72"/>
	<rect x="5857.05" y="159.44" class="st6" width="654.55" height="890.91"/>
	
		<rect x="5902.51" y="99.17" transform="matrix(-1 -1.224647e-16 1.224647e-16 -1 12368.6523 1198.3334)" class="st5" width="563.64" height="1000"/>
	
		<rect x="5857.05" y="187.27" transform="matrix(-1.836970e-16 1 -1 -1.836970e-16 6817.0537 -5551.5991)" class="st8" width="654.55" height="890.91"/>
	<circle class="st9" cx="6184.33" cy="604.46" r="474.59"/>
	
		<rect x="10463.12" y="-5448.88" transform="matrix(6.123234e-17 -1 1 6.123234e-17 15693.8096 5796.0581)" class="st7" width="563.64" height="1000"/>
	<rect x="10365.07" y="-5426.97" class="st4" width="759.72" height="759.72"/>
	<rect x="10417.66" y="-5467.62" class="st6" width="654.55" height="890.91"/>
	
		<rect x="10463.12" y="-5527.89" transform="matrix(-1 -1.224647e-16 1.224647e-16 -1 21489.8672 -10055.7812)" class="st5" width="563.64" height="1000"/>
	
		<rect x="10417.66" y="-5439.78" transform="matrix(-1.836970e-16 1 -1 -1.836970e-16 5750.604 -15739.2646)" class="st8" width="654.55" height="890.91"/>
	<circle class="st9" cx="10744.93" cy="-5022.59" r="474.59"/>
	
		<rect x="218.04" y="-2668.86" transform="matrix(6.123234e-17 -1 1 6.123234e-17 2668.7231 -1669.0009)" class="st7" width="563.64" height="1000"/>
	<rect x="120" y="-2646.96" class="st4" width="759.72" height="759.72"/>
	<rect x="172.59" y="-2687.6" class="st6" width="654.55" height="890.91"/>
	
		<rect x="218.04" y="-2747.88" transform="matrix(-1 -1.224647e-16 1.224647e-16 -1 999.7222 -4495.7544)" class="st5" width="563.64" height="1000"/>
	
		<rect x="172.59" y="-2659.77" transform="matrix(-1.836970e-16 1 -1 -1.836970e-16 -1714.4554 -2714.1777)" class="st8" width="654.55" height="890.91"/>
	<circle class="st9" cx="499.86" cy="-2242.58" r="474.59"/>
	
		<rect x="1341.54" y="-2668.86" transform="matrix(6.123234e-17 -1 1 6.123234e-17 3792.2231 -545.5009)" class="st7" width="563.64" height="1000"/>
	<rect x="1243.5" y="-2646.96" class="st4" width="759.72" height="759.72"/>
	<rect x="1296.09" y="-2687.6" class="st6" width="654.55" height="890.91"/>
	
		<rect x="1341.54" y="-2747.88" transform="matrix(-1 -1.224647e-16 1.224647e-16 -1 3246.7222 -4495.7544)" class="st5" width="563.64" height="1000"/>
	
		<rect x="1296.09" y="-2659.77" transform="matrix(-1.836970e-16 1 -1 -1.836970e-16 -590.9554 -3837.6777)" class="st8" width="654.55" height="890.91"/>
	<circle class="st9" cx="1623.36" cy="-2242.58" r="474.59"/>
	<rect x="1347.61" y="-3916.97" class="st4" width="551.77" height="551.77"/>
	
		<rect x="1424.61" y="-3993.96" transform="matrix(-1 -1.224647e-16 1.224647e-16 -1 3247 -7282.1704)" class="st5" width="397.79" height="705.75"/>
	<rect x="1392.53" y="-3955.47" class="st6" width="461.95" height="628.76"/>
	
		<rect x="1424.61" y="-3993.96" transform="matrix(6.123234e-17 -1 1 6.123234e-17 5264.5854 -2017.5852)" class="st7" width="397.79" height="705.75"/>
	
		<rect x="1392.53" y="-3955.47" transform="matrix(-1.836970e-16 1 -1 -1.836970e-16 -2017.5852 -5264.5854)" class="st8" width="461.95" height="628.76"/>
	<circle class="st9" cx="1623.5" cy="-3641.19" r="317.11"/>
	<rect x="216.01" y="-3916.97" class="st4" width="551.77" height="551.77"/>
	
		<rect x="293" y="-3993.96" transform="matrix(-1 -1.224647e-16 1.224647e-16 -1 983.7817 -7282.1704)" class="st5" width="397.79" height="705.75"/>
	<rect x="260.92" y="-3955.47" class="st6" width="461.95" height="628.76"/>
	
		<rect x="293" y="-3993.96" transform="matrix(6.123234e-17 -1 1 6.123234e-17 4132.9761 -3149.1943)" class="st7" width="397.79" height="705.75"/>
	
		<rect x="260.92" y="-3955.47" transform="matrix(-1.836970e-16 1 -1 -1.836970e-16 -3149.1943 -4132.9761)" class="st8" width="461.95" height="628.76"/>
	<circle class="st9" cx="491.89" cy="-3641.19" r="317.11"/>
	<rect x="3626.61" y="-3916.97" class="st4" width="551.77" height="551.77"/>
	
		<rect x="3703.61" y="-3993.96" transform="matrix(-1 -1.224647e-16 1.224647e-16 -1 7805 -7282.1704)" class="st5" width="397.79" height="705.75"/>
	<rect x="3671.53" y="-3955.47" class="st6" width="461.95" height="628.76"/>
	
		<rect x="3703.61" y="-3993.96" transform="matrix(6.123234e-17 -1 1 6.123234e-17 7543.5854 261.4148)" class="st7" width="397.79" height="705.75"/>
	
		<rect x="3671.53" y="-3955.47" transform="matrix(-1.836970e-16 1 -1 -1.836970e-16 261.4148 -7543.5854)" class="st8" width="461.95" height="628.76"/>
	<circle class="st9" cx="3902.5" cy="-3641.19" r="317.11"/>
	<rect x="4776.11" y="-3916.97" class="st4" width="551.77" height="551.77"/>
	
		<rect x="4853.11" y="-3993.96" transform="matrix(-1 -1.224647e-16 1.224647e-16 -1 10104 -7282.1704)" class="st5" width="397.79" height="705.75"/>
	<rect x="4821.03" y="-3955.47" class="st6" width="461.95" height="628.76"/>
	
		<rect x="4853.11" y="-3993.96" transform="matrix(6.123234e-17 -1 1 6.123234e-17 8693.085 1410.9148)" class="st7" width="397.79" height="705.75"/>
	
		<rect x="4821.03" y="-3955.47" transform="matrix(-1.836970e-16 1 -1 -1.836970e-16 1410.9148 -8693.085)" class="st8" width="461.95" height="628.76"/>
	<circle class="st9" cx="5052" cy="-3641.19" r="317.11"/>
	<rect x="2487.11" y="-3916.97" class="st4" width="551.77" height="551.77"/>
	
		<rect x="2564.11" y="-3993.96" transform="matrix(-1 -1.224647e-16 1.224647e-16 -1 5526 -7282.1704)" class="st5" width="397.79" height="705.75"/>
	<rect x="2532.03" y="-3955.47" class="st6" width="461.95" height="628.76"/>
	
		<rect x="2564.11" y="-3993.96" transform="matrix(6.123234e-17 -1 1 6.123234e-17 6404.0854 -878.0852)" class="st7" width="397.79" height="705.75"/>
	
		<rect x="2532.03" y="-3955.47" transform="matrix(-1.836970e-16 1 -1 -1.836970e-16 -878.0852 -6404.0854)" class="st8" width="461.95" height="628.76"/>
	<circle class="st9" cx="2763" cy="-3641.19" r="317.11"/>
	<rect x="5908.58" y="-3916.97" class="st4" width="551.77" height="551.77"/>
	
		<rect x="5985.57" y="-3993.96" transform="matrix(-1 -1.224647e-16 1.224647e-16 -1 12368.9307 -7282.1704)" class="st5" width="397.79" height="705.75"/>
	<rect x="5953.49" y="-3955.47" class="st6" width="461.95" height="628.76"/>
	
		<rect x="5985.57" y="-3993.96" transform="matrix(6.123234e-17 -1 1 6.123234e-17 9825.5508 2543.3799)" class="st7" width="397.79" height="705.75"/>
	
		<rect x="5953.49" y="-3955.47" transform="matrix(-1.836970e-16 1 -1 -1.836970e-16 2543.3799 -9825.5508)" class="st8" width="461.95" height="628.76"/>
	<circle class="st9" cx="6184.47" cy="-3641.19" r="317.11"/>
	<rect x="7049.11" y="-3916.97" class="st4" width="551.77" height="551.77"/>
	
		<rect x="7126.11" y="-3993.96" transform="matrix(-1 -1.224647e-16 1.224647e-16 -1 14650 -7282.1704)" class="st5" width="397.79" height="705.75"/>
	<rect x="7094.03" y="-3955.47" class="st6" width="461.95" height="628.76"/>
	
		<rect x="7126.11" y="-3993.96" transform="matrix(6.123234e-17 -1 1 6.123234e-17 10966.085 3683.9148)" class="st7" width="397.79" height="705.75"/>
	
		<rect x="7094.03" y="-3955.47" transform="matrix(-1.836970e-16 1 -1 -1.836970e-16 3683.9148 -10966.085)" class="st8" width="461.95" height="628.76"/>
	<circle class="st9" cx="7325" cy="-3641.19" r="317.11"/>
	<rect x="8180.61" y="-3916.97" class="st4" width="551.77" height="551.77"/>
	
		<rect x="8257.61" y="-3993.96" transform="matrix(-1 -1.224647e-16 1.224647e-16 -1 16913 -7282.1704)" class="st5" width="397.79" height="705.75"/>
	<rect x="8225.53" y="-3955.47" class="st6" width="461.95" height="628.76"/>
	
		<rect x="8257.61" y="-3993.96" transform="matrix(6.123234e-17 -1 1 6.123234e-17 12097.585 4815.4146)" class="st7" width="397.79" height="705.75"/>
	
		<rect x="8225.53" y="-3955.47" transform="matrix(-1.836970e-16 1 -1 -1.836970e-16 4815.4146 -12097.585)" class="st8" width="461.95" height="628.76"/>
	<circle class="st9" cx="8456.5" cy="-3641.19" r="317.11"/>
	<rect x="9306.85" y="-3916.97" class="st4" width="551.77" height="551.77"/>
	
		<rect x="9383.84" y="-3993.96" transform="matrix(-1 -1.224647e-16 1.224647e-16 -1 19165.4688 -7282.1704)" class="st5" width="397.79" height="705.75"/>
	<rect x="9351.76" y="-3955.47" class="st6" width="461.95" height="628.76"/>
	
		<rect x="9383.84" y="-3993.96" transform="matrix(6.123234e-17 -1 1 6.123234e-17 13223.8193 5941.6489)" class="st7" width="397.79" height="705.75"/>
	
		<rect x="9351.76" y="-3955.47" transform="matrix(-1.836970e-16 1 -1 -1.836970e-16 5941.6489 -13223.8193)" class="st8" width="461.95" height="628.76"/>
	<circle class="st9" cx="9582.73" cy="-3641.19" r="317.11"/>
	<rect x="5908.58" y="-1140.97" class="st4" width="551.77" height="551.77"/>
	
		<rect x="5985.57" y="-1217.96" transform="matrix(-1 -1.224647e-16 1.224647e-16 -1 12368.9307 -1730.1704)" class="st5" width="397.79" height="705.75"/>
	<rect x="5953.49" y="-1179.47" class="st6" width="461.95" height="628.76"/>
	
		<rect x="5985.57" y="-1217.96" transform="matrix(6.123234e-17 -1 1 6.123234e-17 7049.5503 5319.3799)" class="st7" width="397.79" height="705.75"/>
	
		<rect x="5953.49" y="-1179.47" transform="matrix(-1.836970e-16 1 -1 -1.836970e-16 5319.3799 -7049.5503)" class="st8" width="461.95" height="628.76"/>
	<circle class="st9" cx="6184.47" cy="-865.19" r="317.11"/>
	<rect x="7041.64" y="-1140.97" class="st4" width="551.77" height="551.77"/>
	
		<rect x="7118.63" y="-1217.96" transform="matrix(-1 -1.224647e-16 1.224647e-16 -1 14635.0449 -1730.1704)" class="st5" width="397.79" height="705.75"/>
	<rect x="7086.55" y="-1179.47" class="st6" width="461.95" height="628.76"/>
	
		<rect x="7118.63" y="-1217.96" transform="matrix(6.123234e-17 -1 1 6.123234e-17 8182.6074 6452.437)" class="st7" width="397.79" height="705.75"/>
	
		<rect x="7086.55" y="-1179.47" transform="matrix(-1.836970e-16 1 -1 -1.836970e-16 6452.437 -8182.6074)" class="st8" width="461.95" height="628.76"/>
	<circle class="st9" cx="7317.52" cy="-865.19" r="317.11"/>
	<rect x="8180.61" y="-1140.97" class="st4" width="551.77" height="551.77"/>
	
		<rect x="8257.61" y="-1217.96" transform="matrix(-1 -1.224647e-16 1.224647e-16 -1 16913 -1730.1704)" class="st5" width="397.79" height="705.75"/>
	<rect x="8225.53" y="-1179.47" class="st6" width="461.95" height="628.76"/>
	
		<rect x="8257.61" y="-1217.96" transform="matrix(6.123234e-17 -1 1 6.123234e-17 9321.585 7591.4146)" class="st7" width="397.79" height="705.75"/>
	
		<rect x="8225.53" y="-1179.47" transform="matrix(-1.836970e-16 1 -1 -1.836970e-16 7591.4146 -9321.585)" class="st8" width="461.95" height="628.76"/>
	<circle class="st9" cx="8456.5" cy="-865.19" r="317.11"/>
	<rect x="4776.11" y="-1140.97" class="st4" width="551.77" height="551.77"/>
	
		<rect x="4853.11" y="-1217.96" transform="matrix(-1 -1.224647e-16 1.224647e-16 -1 10104 -1730.1704)" class="st5" width="397.79" height="705.75"/>
	<rect x="4821.03" y="-1179.47" class="st6" width="461.95" height="628.76"/>
	
		<rect x="4853.11" y="-1217.96" transform="matrix(6.123234e-17 -1 1 6.123234e-17 5917.0854 4186.9146)" class="st7" width="397.79" height="705.75"/>
	
		<rect x="4821.03" y="-1179.47" transform="matrix(-1.836970e-16 1 -1 -1.836970e-16 4186.9146 -5917.0854)" class="st8" width="461.95" height="628.76"/>
	<circle class="st9" cx="5052" cy="-865.19" r="317.11"/>
	<rect x="10469.19" y="-1140.97" class="st4" width="551.77" height="551.77"/>
	
		<rect x="10546.18" y="-1217.96" transform="matrix(-1 -1.224647e-16 1.224647e-16 -1 21490.1465 -1730.1704)" class="st5" width="397.79" height="705.75"/>
	<rect x="10514.1" y="-1179.47" class="st6" width="461.95" height="628.76"/>
	
		<rect x="10546.18" y="-1217.96" transform="matrix(6.123234e-17 -1 1 6.123234e-17 11610.1582 9879.9873)" class="st7" width="397.79" height="705.75"/>
	
		<rect x="10514.1" y="-1179.47" transform="matrix(-1.836970e-16 1 -1 -1.836970e-16 9879.9873 -11610.1582)" class="st8" width="461.95" height="628.76"/>
	<circle class="st9" cx="10745.07" cy="-865.19" r="317.11"/>
	<rect x="3626.61" y="-1140.97" class="st4" width="551.77" height="551.77"/>
	
		<rect x="3703.61" y="-1217.96" transform="matrix(-1 -1.224647e-16 1.224647e-16 -1 7805 -1730.1704)" class="st5" width="397.79" height="705.75"/>
	<rect x="3671.53" y="-1179.47" class="st6" width="461.95" height="628.76"/>
	
		<rect x="3703.61" y="-1217.96" transform="matrix(6.123234e-17 -1 1 6.123234e-17 4767.5854 3037.4148)" class="st7" width="397.79" height="705.75"/>
	
		<rect x="3671.53" y="-1179.47" transform="matrix(-1.836970e-16 1 -1 -1.836970e-16 3037.4148 -4767.5854)" class="st8" width="461.95" height="628.76"/>
	<circle class="st9" cx="3902.5" cy="-865.19" r="317.11"/>
	<rect x="9306.85" y="-1140.97" class="st4" width="551.77" height="551.77"/>
	
		<rect x="9383.84" y="-1217.96" transform="matrix(-1 -1.224647e-16 1.224647e-16 -1 19165.4688 -1730.1704)" class="st5" width="397.79" height="705.75"/>
	<rect x="9351.76" y="-1179.47" class="st6" width="461.95" height="628.76"/>
	
		<rect x="9383.84" y="-1217.96" transform="matrix(6.123234e-17 -1 1 6.123234e-17 10447.8193 8717.6484)" class="st7" width="397.79" height="705.75"/>
	
		<rect x="9351.76" y="-1179.47" transform="matrix(-1.836970e-16 1 -1 -1.836970e-16 8717.6484 -10447.8193)" class="st8" width="461.95" height="628.76"/>
	<circle class="st9" cx="9582.73" cy="-865.19" r="317.11"/>
	
		<rect x="1344.42" y="-5448.88" transform="matrix(6.123234e-17 -1 1 6.123234e-17 6575.1099 -3322.6414)" class="st7" width="563.64" height="1000"/>
	<rect x="1246.37" y="-5426.97" class="st4" width="759.72" height="759.72"/>
	<rect x="1298.96" y="-5467.62" class="st6" width="654.55" height="890.91"/>
	
		<rect x="1344.42" y="-5527.89" transform="matrix(-1 -1.224647e-16 1.224647e-16 -1 3252.4688 -10055.7812)" class="st5" width="563.64" height="1000"/>
	
		<rect x="1298.96" y="-5439.78" transform="matrix(-1.836970e-16 1 -1 -1.836970e-16 -3368.0957 -6620.5645)" class="st8" width="654.55" height="890.91"/>
	<circle class="st9" cx="1626.23" cy="-5022.59" r="474.59"/>
	
		<rect x="218.04" y="-5448.88" transform="matrix(6.123234e-17 -1 1 6.123234e-17 5448.7368 -4449.0146)" class="st7" width="563.64" height="1000"/>
	<rect x="120" y="-5426.97" class="st4" width="759.72" height="759.72"/>
	<rect x="172.59" y="-5467.62" class="st6" width="654.55" height="890.91"/>
	
		<rect x="218.04" y="-5527.89" transform="matrix(-1 -1.224647e-16 1.224647e-16 -1 999.7222 -10055.7812)" class="st5" width="563.64" height="1000"/>
	
		<rect x="172.59" y="-5439.78" transform="matrix(-1.836970e-16 1 -1 -1.836970e-16 -4494.4692 -5494.1914)" class="st8" width="654.55" height="890.91"/>
	<circle class="st9" cx="499.86" cy="-5022.59" r="474.59"/>
	
		<rect x="3620.54" y="-5448.88" transform="matrix(6.123234e-17 -1 1 6.123234e-17 8851.2363 -1046.5145)" class="st7" width="563.64" height="1000"/>
	<rect x="3522.5" y="-5426.97" class="st4" width="759.72" height="759.72"/>
	<rect x="3575.09" y="-5467.62" class="st6" width="654.55" height="890.91"/>
	
		<rect x="3620.54" y="-5527.89" transform="matrix(-1 -1.224647e-16 1.224647e-16 -1 7804.7222 -10055.7812)" class="st5" width="563.64" height="1000"/>
	
		<rect x="3575.09" y="-5439.78" transform="matrix(-1.836970e-16 1 -1 -1.836970e-16 -1091.9691 -8896.6914)" class="st8" width="654.55" height="890.91"/>
	<circle class="st9" cx="3902.36" cy="-5022.59" r="474.59"/>
	
		<rect x="4770.04" y="-5448.88" transform="matrix(6.123234e-17 -1 1 6.123234e-17 10000.7363 102.9855)" class="st7" width="563.64" height="1000"/>
	<rect x="4672" y="-5426.97" class="st4" width="759.72" height="759.72"/>
	<rect x="4724.59" y="-5467.62" class="st6" width="654.55" height="890.91"/>
	
		<rect x="4770.04" y="-5527.89" transform="matrix(-1 -1.224647e-16 1.224647e-16 -1 10103.7227 -10055.7812)" class="st5" width="563.64" height="1000"/>
	
		<rect x="4724.59" y="-5439.78" transform="matrix(-1.836970e-16 1 -1 -1.836970e-16 57.5309 -10046.1914)" class="st8" width="654.55" height="890.91"/>
	<circle class="st9" cx="5051.86" cy="-5022.59" r="474.59"/>
	
		<rect x="2481.04" y="-5448.88" transform="matrix(6.123234e-17 -1 1 6.123234e-17 7711.7368 -2186.0146)" class="st7" width="563.64" height="1000"/>
	<rect x="2383" y="-5426.97" class="st4" width="759.72" height="759.72"/>
	<rect x="2435.59" y="-5467.62" class="st6" width="654.55" height="890.91"/>
	
		<rect x="2481.04" y="-5527.89" transform="matrix(-1 -1.224647e-16 1.224647e-16 -1 5525.7222 -10055.7812)" class="st5" width="563.64" height="1000"/>
	
		<rect x="2435.59" y="-5439.78" transform="matrix(-1.836970e-16 1 -1 -1.836970e-16 -2231.469 -7757.1914)" class="st8" width="654.55" height="890.91"/>
	<circle class="st9" cx="2762.86" cy="-5022.59" r="474.59"/>
	
		<rect x="5902.51" y="-5448.88" transform="matrix(6.123234e-17 -1 1 6.123234e-17 11133.2021 1235.4506)" class="st7" width="563.64" height="1000"/>
	<rect x="5804.46" y="-5426.97" class="st4" width="759.72" height="759.72"/>
	<rect x="5857.05" y="-5467.62" class="st6" width="654.55" height="890.91"/>
	
		<rect x="5902.51" y="-5527.89" transform="matrix(-1 -1.224647e-16 1.224647e-16 -1 12368.6523 -10055.7812)" class="st5" width="563.64" height="1000"/>
	
		<rect x="5857.05" y="-5439.78" transform="matrix(-1.836970e-16 1 -1 -1.836970e-16 1189.996 -11178.6562)" class="st8" width="654.55" height="890.91"/>
	<circle class="st9" cx="6184.33" cy="-5022.59" r="474.59"/>
	
		<rect x="7043.04" y="-5448.88" transform="matrix(6.123234e-17 -1 1 6.123234e-17 12273.7363 2375.9854)" class="st7" width="563.64" height="1000"/>
	<rect x="6945" y="-5426.97" class="st4" width="759.72" height="759.72"/>
	<rect x="6997.59" y="-5467.62" class="st6" width="654.55" height="890.91"/>
	
		<rect x="7043.04" y="-5527.89" transform="matrix(-1 -1.224647e-16 1.224647e-16 -1 14649.7227 -10055.7812)" class="st5" width="563.64" height="1000"/>
	
		<rect x="6997.59" y="-5439.78" transform="matrix(-1.836970e-16 1 -1 -1.836970e-16 2330.531 -12319.1914)" class="st8" width="654.55" height="890.91"/>
	<circle class="st9" cx="7324.86" cy="-5022.59" r="474.59"/>
	
		<rect x="8174.54" y="-5448.88" transform="matrix(6.123234e-17 -1 1 6.123234e-17 13405.2363 3507.4854)" class="st7" width="563.64" height="1000"/>
	<rect x="8076.5" y="-5426.97" class="st4" width="759.72" height="759.72"/>
	<rect x="8129.09" y="-5467.62" class="st6" width="654.55" height="890.91"/>
	
		<rect x="8174.54" y="-5527.89" transform="matrix(-1 -1.224647e-16 1.224647e-16 -1 16912.7227 -10055.7812)" class="st5" width="563.64" height="1000"/>
	
		<rect x="8129.09" y="-5439.78" transform="matrix(-1.836970e-16 1 -1 -1.836970e-16 3462.031 -13450.6914)" class="st8" width="654.55" height="890.91"/>
	<circle class="st9" cx="8456.36" cy="-5022.59" r="474.59"/>
	
		<rect x="9300.78" y="-5448.88" transform="matrix(6.123234e-17 -1 1 6.123234e-17 14531.4707 4633.7192)" class="st7" width="563.64" height="1000"/>
	<rect x="9202.73" y="-5426.97" class="st4" width="759.72" height="759.72"/>
	<rect x="9255.32" y="-5467.62" class="st6" width="654.55" height="890.91"/>
	
		<rect x="9300.78" y="-5527.89" transform="matrix(-1 -1.224647e-16 1.224647e-16 -1 19165.1895 -10055.7812)" class="st5" width="563.64" height="1000"/>
	
		<rect x="9255.32" y="-5439.78" transform="matrix(-1.836970e-16 1 -1 -1.836970e-16 4588.2646 -14576.9248)" class="st8" width="654.55" height="890.91"/>
	<circle class="st9" cx="9582.59" cy="-5022.59" r="474.59"/>
	
		<rect x="5902.51" y="-2668.86" transform="matrix(6.123234e-17 -1 1 6.123234e-17 8353.1885 4015.4641)" class="st7" width="563.64" height="1000"/>
	<rect x="5804.46" y="-2646.96" class="st4" width="759.72" height="759.72"/>
	<rect x="5857.05" y="-2687.6" class="st6" width="654.55" height="890.91"/>
	
		<rect x="5902.51" y="-2747.88" transform="matrix(-1 -1.224647e-16 1.224647e-16 -1 12368.6523 -4495.7544)" class="st5" width="563.64" height="1000"/>
	
		<rect x="5857.05" y="-2659.77" transform="matrix(-1.836970e-16 1 -1 -1.836970e-16 3970.0098 -8398.6426)" class="st8" width="654.55" height="890.91"/>
	<circle class="st9" cx="6184.33" cy="-2242.58" r="474.59"/>
	
		<rect x="7043.04" y="-2668.86" transform="matrix(6.123234e-17 -1 1 6.123234e-17 9493.7227 5155.999)" class="st7" width="563.64" height="1000"/>
	<rect x="6945" y="-2646.96" class="st4" width="759.72" height="759.72"/>
	<rect x="6997.59" y="-2687.6" class="st6" width="654.55" height="890.91"/>
	
		<rect x="7043.04" y="-2747.88" transform="matrix(-1 -1.224647e-16 1.224647e-16 -1 14649.7227 -4495.7544)" class="st5" width="563.64" height="1000"/>
	
		<rect x="6997.59" y="-2659.77" transform="matrix(-1.836970e-16 1 -1 -1.836970e-16 5110.5444 -9539.1777)" class="st8" width="654.55" height="890.91"/>
	<circle class="st9" cx="7324.86" cy="-2242.58" r="474.59"/>
	
		<rect x="8174.54" y="-2668.86" transform="matrix(6.123234e-17 -1 1 6.123234e-17 10625.2227 6287.499)" class="st7" width="563.64" height="1000"/>
	<rect x="8076.5" y="-2646.96" class="st4" width="759.72" height="759.72"/>
	<rect x="8129.09" y="-2687.6" class="st6" width="654.55" height="890.91"/>
	
		<rect x="8174.54" y="-2747.88" transform="matrix(-1 -1.224647e-16 1.224647e-16 -1 16912.7227 -4495.7544)" class="st5" width="563.64" height="1000"/>
	
		<rect x="8129.09" y="-2659.77" transform="matrix(-1.836970e-16 1 -1 -1.836970e-16 6242.0444 -10670.6777)" class="st8" width="654.55" height="890.91"/>
	<circle class="st9" cx="8456.36" cy="-2242.58" r="474.59"/>
	
		<rect x="4770.04" y="-2668.86" transform="matrix(6.123234e-17 -1 1 6.123234e-17 7220.7231 2882.999)" class="st7" width="563.64" height="1000"/>
	<rect x="4672" y="-2646.96" class="st4" width="759.72" height="759.72"/>
	<rect x="4724.59" y="-2687.6" class="st6" width="654.55" height="890.91"/>
	
		<rect x="4770.04" y="-2747.88" transform="matrix(-1 -1.224647e-16 1.224647e-16 -1 10103.7227 -4495.7544)" class="st5" width="563.64" height="1000"/>
	
		<rect x="4724.59" y="-2659.77" transform="matrix(-1.836970e-16 1 -1 -1.836970e-16 2837.5447 -7266.1777)" class="st8" width="654.55" height="890.91"/>
	<circle class="st9" cx="5051.86" cy="-2242.58" r="474.59"/>
	
		<rect x="10463.12" y="-2668.86" transform="matrix(6.123234e-17 -1 1 6.123234e-17 12913.7959 8576.0723)" class="st7" width="563.64" height="1000"/>
	<rect x="10365.07" y="-2646.96" class="st4" width="759.72" height="759.72"/>
	<rect x="10417.66" y="-2687.6" class="st6" width="654.55" height="890.91"/>
	
		<rect x="10463.12" y="-2747.88" transform="matrix(-1 -1.224647e-16 1.224647e-16 -1 21489.8672 -4495.7544)" class="st5" width="563.64" height="1000"/>
	
		<rect x="10417.66" y="-2659.77" transform="matrix(-1.836970e-16 1 -1 -1.836970e-16 8530.6172 -12959.251)" class="st8" width="654.55" height="890.91"/>
	<circle class="st9" cx="10744.93" cy="-2242.58" r="474.59"/>
	
		<rect x="3620.54" y="-2668.86" transform="matrix(6.123234e-17 -1 1 6.123234e-17 6071.2231 1733.4991)" class="st7" width="563.64" height="1000"/>
	<rect x="3522.5" y="-2646.96" class="st4" width="759.72" height="759.72"/>
	<rect x="3575.09" y="-2687.6" class="st6" width="654.55" height="890.91"/>
	
		<rect x="3620.54" y="-2747.88" transform="matrix(-1 -1.224647e-16 1.224647e-16 -1 7804.7222 -4495.7544)" class="st5" width="563.64" height="1000"/>
	
		<rect x="3575.09" y="-2659.77" transform="matrix(-1.836970e-16 1 -1 -1.836970e-16 1688.0446 -6116.6777)" class="st8" width="654.55" height="890.91"/>
	<circle class="st9" cx="3902.36" cy="-2242.58" r="474.59"/>
	
		<rect x="9300.78" y="-2668.86" transform="matrix(6.123234e-17 -1 1 6.123234e-17 11751.457 7413.7329)" class="st7" width="563.64" height="1000"/>
	<rect x="9202.73" y="-2646.96" class="st4" width="759.72" height="759.72"/>
	<rect x="9255.32" y="-2687.6" class="st6" width="654.55" height="890.91"/>
	
		<rect x="9300.78" y="-2747.88" transform="matrix(-1 -1.224647e-16 1.224647e-16 -1 19165.1895 -4495.7544)" class="st5" width="563.64" height="1000"/>
	
		<rect x="9255.32" y="-2659.77" transform="matrix(-1.836970e-16 1 -1 -1.836970e-16 7368.2783 -11796.9111)" class="st8" width="654.55" height="890.91"/>
	<circle class="st9" cx="9582.59" cy="-2242.58" r="474.59"/>
	
		<rect x="-2075.9" y="-5448.88" transform="matrix(6.123234e-17 -1 1 6.123234e-17 3154.7971 -6742.9541)" class="st7" width="563.64" height="1000"/>
	<rect x="-2173.94" y="-5426.97" class="st4" width="759.72" height="759.72"/>
	<rect x="-2121.35" y="-5467.62" class="st6" width="654.55" height="890.91"/>
	
		<rect x="-2075.9" y="-5527.89" transform="matrix(-1 -1.224647e-16 1.224647e-16 -1 -3588.157 -10055.7812)" class="st5" width="563.64" height="1000"/>
	
		<rect x="-2121.35" y="-5439.78" transform="matrix(-1.836970e-16 1 -1 -1.836970e-16 -6788.4087 -3200.2517)" class="st8" width="654.55" height="890.91"/>
	<circle class="st9" cx="-1794.08" cy="-5022.59" r="474.59"/>
	
		<rect x="-937.03" y="-5448.88" transform="matrix(6.123234e-17 -1 1 6.123234e-17 4293.6626 -5604.0889)" class="st7" width="563.64" height="1000"/>
	<rect x="-1035.08" y="-5426.97" class="st4" width="759.72" height="759.72"/>
	<rect x="-982.49" y="-5467.62" class="st6" width="654.55" height="890.91"/>
	
		<rect x="-937.03" y="-5527.89" transform="matrix(-1 -1.224647e-16 1.224647e-16 -1 -1310.426 -10055.7812)" class="st5" width="563.64" height="1000"/>
	
		<rect x="-982.49" y="-5439.78" transform="matrix(-1.836970e-16 1 -1 -1.836970e-16 -5649.543 -4339.1172)" class="st8" width="654.55" height="890.91"/>
	<circle class="st9" cx="-655.21" cy="-5022.59" r="474.59"/>
	<rect x="-2069.82" y="-3916.97" class="st4" width="551.77" height="551.77"/>
	
		<rect x="-1992.83" y="-3993.96" transform="matrix(-1 -1.224647e-16 1.224647e-16 -1 -3587.8794 -7282.1704)" class="st5" width="397.79" height="705.75"/>
	<rect x="-2024.91" y="-3955.47" class="st6" width="461.95" height="628.76"/>
	
		<rect x="-1992.83" y="-3993.96" transform="matrix(6.123234e-17 -1 1 6.123234e-17 1847.1455 -5435.0249)" class="st7" width="397.79" height="705.75"/>
	
		<rect x="-2024.91" y="-3955.47" transform="matrix(-1.836970e-16 1 -1 -1.836970e-16 -5435.0249 -1847.1455)" class="st8" width="461.95" height="628.76"/>
	<circle class="st9" cx="-1793.94" cy="-3641.19" r="317.11"/>
	<rect x="-918.4" y="-3916.97" class="st4" width="551.77" height="551.77"/>
	
		<rect x="-841.41" y="-3993.96" transform="matrix(-1 -1.224647e-16 1.224647e-16 -1 -1285.0392 -7282.1704)" class="st5" width="397.79" height="705.75"/>
	<rect x="-873.49" y="-3955.47" class="st10" width="461.95" height="628.76"/>
	
		<rect x="-841.41" y="-3993.96" transform="matrix(6.123234e-17 -1 1 6.123234e-17 2998.5657 -4283.605)" class="st11" width="397.79" height="705.75"/>
	
		<rect x="-873.49" y="-3955.47" transform="matrix(-1.836970e-16 1 -1 -1.836970e-16 -4283.605 -2998.5657)" class="st12" width="461.95" height="628.76"/>
	<circle class="st13" cx="-642.52" cy="-3641.19" r="317.11"/>
</g>
<g id="Metrics_1_">
</g>
<g id="Icon">
	<g>
		<rect x="298.83" y="794.38" width="394.76" height="70"/>
		<rect x="298.83" y="646.78" width="394.76" height="70"/>
		<rect x="298.83" y="499.18" width="394.76" height="70"/>
		<path d="M755.57,241.74h-26.23v67.32c0,0.9-0.01,1.79-0.04,2.68h26.15c0.04,0.04,0.09,0.08,0.13,0.13l0,666.81
			c-0.04,0.04-0.08,0.09-0.12,0.12l-511.42,0c-0.04-0.04-0.09-0.08-0.12-0.13l0-666.81c0.04-0.04,0.08-0.09,0.12-0.12h26.15
			c-0.02-0.89-0.04-1.78-0.04-2.68v-67.32H243.9c-38.5,0-70,31.5-70,70v667.06c0,38.5,31.5,70,70,70h511.67c38.5,0,70-31.5,70-70
			V311.74C825.57,273.24,794.07,241.74,755.57,241.74z"/>
		<path d="M370.13,339.07h259.2c16.5,0,30-13.5,30-30v-78.98c0-16.5-13.5-30-30-30h-44v-82.02c0-16.5-13.5-30-30-30h-111.2
			c-16.5,0-30,13.5-30,30v82.02h-44c-16.5,0-30,13.5-30,30v78.98C340.13,325.57,353.63,339.07,370.13,339.07z M499.5,133.57
			c19.33,0,35,15.67,35,35s-15.67,35-35,35s-35-15.67-35-35S480.17,133.57,499.5,133.57z"/>
	</g>
</g>
<g id="Comments">
</g>
</svg>
