<svg xmlns="http://www.w3.org/2000/svg" viewBox="0 0 1000 1200"><style>.st0{display:none}.st1,.st2{opacity:.15}.st1{display:inline;fill:#00aeef}.st2{fill:#fbb040}.st2,.st3,.st4{display:inline}.st3{fill:#e6e7e8}.st4{stroke:#ef4136}.st4,.st5,.st6{fill:none;stroke-width:3;stroke-miterlimit:10}.st5{display:inline;stroke:#fbb040}.st6{stroke:#fff200}.st6,.st7,.st8{display:inline}.st7{fill:none;stroke-width:3;stroke-miterlimit:10;stroke:#1b75bc}.st8{stroke:#00aeef}.st10,.st11,.st12,.st13,.st8,.st9{fill:none;stroke-width:3;stroke-miterlimit:10}.st9{display:inline;stroke:#919395}.st10,.st11,.st12,.st13{stroke:#fff200}.st11,.st12,.st13{stroke:#1b75bc}.st12,.st13{stroke:#00aeef}.st13{stroke:#919395}</style><g id="Sections" class="st0"><path class="st1" d="M-1142.52-1270.41h1000v50h-1000z"/><path class="st2" d="M-1142.52-510.41h1000v240h-1000z"/><path class="st3" d="M-1142.52-1470.41h1000v200h-1000z"/><path class="st1" d="M0-1270.41h1000v50H0z"/><path class="st2" d="M0-510.41h1000v240H0z"/><path class="st3" d="M0-1470.41h1000v200H0z"/><path class="st1" d="M1123.5-1270.41h1000v50h-1000z"/><path class="st2" d="M1123.5-510.41h1000v240h-1000z"/><path class="st3" d="M1123.5-1470.41h1000v200h-1000z"/><path class="st1" d="M1123.5-4046.41h1000v50h-1000z"/><path class="st2" d="M1123.5-3286.41h1000v240h-1000z"/><path class="st3" d="M1123.5-4246.41h1000v200h-1000z"/><path class="st1" d="M-8.11-4046.41h1000v50h-1000z"/><path class="st2" d="M-8.11-3286.41h1000v240h-1000z"/><path class="st3" d="M-8.11-4246.41h1000v200h-1000z"/><path class="st1" d="M-2293.94-4046.41h1000v50h-1000z"/><path class="st2" d="M-2293.94-3286.41h1000v240h-1000z"/><path class="st3" d="M-2293.94-4246.41h1000v200h-1000z"/><path class="st1" d="M-1142.52-4046.41h1000v50h-1000z"/><path class="st2" d="M-1142.52-3286.41h1000v240h-1000z"/><path class="st3" d="M-1142.52-4246.41h1000v200h-1000z"/><path class="st1" d="M3402.5-4046.41h1000v50h-1000z"/><path class="st2" d="M3402.5-3286.41h1000v240h-1000z"/><path class="st3" d="M3402.5-4246.41h1000v200h-1000z"/><path class="st1" d="M4552-4046.41h1000v50H4552z"/><path class="st2" d="M4552-3286.41h1000v240H4552z"/><path class="st3" d="M4552-4246.41h1000v200H4552z"/><path class="st1" d="M2263-4046.41h1000v50H2263z"/><path class="st2" d="M2263-3286.41h1000v240H2263z"/><path class="st3" d="M2263-4246.41h1000v200H2263z"/><path class="st1" d="M5684.47-4046.41h1000v50h-1000z"/><path class="st2" d="M5684.47-3286.41h1000v240h-1000z"/><path class="st3" d="M5684.47-4246.41h1000v200h-1000z"/><path class="st1" d="M6825-4046.41h1000v50H6825z"/><path class="st2" d="M6825-3286.41h1000v240H6825z"/><path class="st3" d="M6825-4246.41h1000v200H6825z"/><path class="st1" d="M7956.5-4046.41h1000v50h-1000z"/><path class="st2" d="M7956.5-3286.41h1000v240h-1000z"/><path class="st3" d="M7956.5-4246.41h1000v200h-1000z"/><path class="st1" d="M9082.73-4046.41h1000v50h-1000z"/><path class="st2" d="M9082.73-3286.41h1000v240h-1000z"/><path class="st3" d="M9082.73-4246.41h1000v200h-1000z"/><path class="st1" d="M5684.47-1270.41h1000v50h-1000z"/><path class="st2" d="M5684.47-510.41h1000v240h-1000z"/><path class="st3" d="M5684.47-1470.41h1000v200h-1000z"/><path class="st1" d="M6817.52-1270.41h1000v50h-1000z"/><path class="st2" d="M6817.52-510.41h1000v240h-1000z"/><path class="st3" d="M6817.52-1470.41h1000v200h-1000z"/><path class="st1" d="M7956.5-1270.41h1000v50h-1000z"/><path class="st2" d="M7956.5-510.41h1000v240h-1000z"/><path class="st3" d="M7956.5-1470.41h1000v200h-1000z"/><path class="st1" d="M4552-1270.41h1000v50H4552z"/><path class="st2" d="M4552-510.41h1000v240H4552z"/><path class="st3" d="M4552-1470.41h1000v200H4552z"/><path class="st1" d="M10245.07-1270.41h1000v50h-1000z"/><path class="st2" d="M10245.07-510.41h1000v240h-1000z"/><path class="st3" d="M10245.07-1470.41h1000v200h-1000z"/><path class="st1" d="M3402.5-1270.41h1000v50h-1000z"/><path class="st2" d="M3402.5-510.41h1000v240h-1000z"/><path class="st3" d="M3402.5-1470.41h1000v200h-1000z"/><path class="st1" d="M9082.73-1270.41h1000v50h-1000z"/><path class="st2" d="M9082.73-510.41h1000v240h-1000z"/><path class="st3" d="M9082.73-1470.41h1000v200h-1000z"/><path class="st1" d="M1126.37-5427.06h1000v50h-1000z"/><path class="st2" d="M1126.37-4667.06h1000v240h-1000z"/><path class="st3" d="M1126.37-5627.06h1000v200h-1000z"/><path class="st1" d="M0-5427.06h1000v50H0z"/><path class="st2" d="M0-4667.06h1000v240H0z"/><path class="st3" d="M0-5627.06h1000v200H0z"/><path class="st1" d="M-2293.94-5427.06h1000v50h-1000z"/><path class="st2" d="M-2293.94-4667.06h1000v240h-1000z"/><path class="st3" d="M-2293.94-5627.06h1000v200h-1000z"/><path class="st1" d="M-1155.07-5427.06h1000v50h-1000z"/><path class="st2" d="M-1155.07-4667.06h1000v240h-1000z"/><path class="st3" d="M-1155.07-5627.06h1000v200h-1000z"/><path class="st1" d="M3402.5-5427.06h1000v50h-1000z"/><path class="st2" d="M3402.5-4667.06h1000v240h-1000z"/><path class="st3" d="M3402.5-5627.06h1000v200h-1000z"/><path class="st1" d="M4552-5427.06h1000v50H4552z"/><path class="st2" d="M4552-4667.06h1000v240H4552z"/><path class="st3" d="M4552-5627.06h1000v200H4552z"/><path class="st1" d="M2263-5427.06h1000v50H2263z"/><path class="st2" d="M2263-4667.06h1000v240H2263z"/><path class="st3" d="M2263-5627.06h1000v200H2263z"/><path class="st1" d="M5684.47-5427.06h1000v50h-1000z"/><path class="st2" d="M5684.47-4667.06h1000v240h-1000z"/><path class="st3" d="M5684.47-5627.06h1000v200h-1000z"/><path class="st1" d="M6825-5427.06h1000v50H6825z"/><path class="st2" d="M6825-4667.06h1000v240H6825z"/><path class="st3" d="M6825-5627.06h1000v200H6825z"/><path class="st1" d="M7956.5-5427.06h1000v50h-1000z"/><path class="st2" d="M7956.5-4667.06h1000v240h-1000z"/><path class="st3" d="M7956.5-5627.06h1000v200h-1000z"/><path class="st1" d="M9082.73-5427.06h1000v50h-1000z"/><path class="st2" d="M9082.73-4667.06h1000v240h-1000z"/><path class="st3" d="M9082.73-5627.06h1000v200h-1000z"/><path class="st1" d="M5684.47-2647.04h1000v50h-1000z"/><path class="st2" d="M5684.47-1887.04h1000v240h-1000z"/><path class="st3" d="M5684.47-2847.04h1000v200h-1000z"/><path class="st1" d="M6825-2647.04h1000v50H6825z"/><path class="st2" d="M6825-1887.04h1000v240H6825z"/><path class="st3" d="M6825-2847.04h1000v200H6825z"/><path class="st1" d="M7956.5-2647.04h1000v50h-1000z"/><path class="st2" d="M7956.5-1887.04h1000v240h-1000z"/><path class="st3" d="M7956.5-2847.04h1000v200h-1000z"/><path class="st1" d="M4552-2647.04h1000v50H4552z"/><path class="st2" d="M4552-1887.04h1000v240H4552z"/><path class="st3" d="M4552-2847.04h1000v200H4552z"/><path class="st1" d="M10245.07-2647.04h1000v50h-1000z"/><path class="st2" d="M10245.07-1887.04h1000v240h-1000z"/><path class="st3" d="M10245.07-2847.04h1000v200h-1000z"/><path class="st1" d="M3402.5-2647.04h1000v50h-1000z"/><path class="st2" d="M3402.5-1887.04h1000v240h-1000z"/><path class="st3" d="M3402.5-2847.04h1000v200h-1000z"/><path class="st1" d="M9082.73-2647.04h1000v50h-1000z"/><path class="st2" d="M9082.73-1887.04h1000v240h-1000z"/><path class="st3" d="M9082.73-2847.04h1000v200h-1000z"/><path class="st1" d="M-1142.52-2647.04h1000v50h-1000z"/><path class="st3" d="M-1142.52-2847.04h1000v200h-1000z"/><path class="st2" d="M-1142.52-1887.04h1000v240h-1000z"/><path class="st1" d="M0-2647.04h1000v50H0z"/><path class="st3" d="M0-2847.04h1000v200H0z"/><path class="st2" d="M0-1887.04h1000v240H0z"/><path class="st1" d="M1123.5-2647.04h1000v50h-1000z"/><path class="st3" d="M1123.5-2847.04h1000v200h-1000z"/><path class="st2" d="M1123.5-1887.04h1000v240h-1000z"/><path class="st1" d="M2263-2647.04h1000v50H2263z"/><path class="st3" d="M2263-2847.04h1000v200H2263z"/><path class="st2" d="M2263-1887.04h1000v240H2263z"/><path class="st1" d="M2263-1270.41h1000v50H2263z"/><path class="st3" d="M2263-1470.41h1000v200H2263z"/><path class="st2" d="M2263-510.41h1000v240H2263z"/><path class="st1" d="M-2293.94-2647.04h1000v50h-1000z"/><path class="st3" d="M-2293.94-2847.04h1000v200h-1000z"/><path class="st2" d="M-2293.94-1887.04h1000v240h-1000z"/><path class="st1" d="M-2293.94 200h1000v50h-1000z"/><path class="st3" d="M-2293.94 0h1000v200h-1000z"/><path class="st2" d="M-2293.94 960h1000v240h-1000z"/><path class="st1" d="M-1142.52 200h1000v50h-1000z"/><path class="st3" d="M-1142.52 0h1000v200h-1000z"/><path class="st2" d="M-1142.52 960h1000v240h-1000z"/><path class="st1" d="M0 200h1000v50H0z"/><path class="st3" d="M0 0h1000v200H0z"/><path class="st2" d="M0 960h1000v240H0z"/><path class="st1" d="M1126.37 200h1000v50h-1000z"/><path class="st3" d="M1126.37 0h1000v200h-1000z"/><path class="st2" d="M1126.37 960h1000v240h-1000z"/><path class="st1" d="M2263 200h1000v50H2263z"/><path class="st3" d="M2263 0h1000v200H2263z"/><path class="st2" d="M2263 960h1000v240H2263z"/><path class="st1" d="M3402.5 200h1000v50h-1000z"/><path class="st3" d="M3402.5 0h1000v200h-1000z"/><path class="st2" d="M3402.5 960h1000v240h-1000z"/><path class="st1" d="M4552 200h1000v50H4552z"/><path class="st3" d="M4552 0h1000v200H4552z"/><path class="st2" d="M4552 960h1000v240H4552z"/><path class="st1" d="M5684.47 200h1000v50h-1000z"/><path class="st3" d="M5684.47 0h1000v200h-1000z"/><path class="st2" d="M5684.47 960h1000v240h-1000z"/><path class="st1" d="M10245.07-5427.06h1000v50h-1000z"/><path class="st3" d="M10245.07-5627.06h1000v200h-1000z"/><path class="st2" d="M10245.07-4667.06h1000v240h-1000z"/><path class="st1" d="M-2293.94-1270.41h1000v50h-1000z"/><path class="st2" d="M-2293.94-510.41h1000v240h-1000z"/><path class="st3" d="M-2293.94-1470.41h1000v200h-1000z"/><path class="st1" d="M-2293.94 1565.81h1000v50h-1000z"/><path class="st2" d="M-2293.94 2325.81h1000v240h-1000z"/><path class="st3" d="M-2293.94 1365.81h1000v200h-1000z"/><path class="st1" d="M-1142.52 1565.81h1000v50h-1000z"/><path class="st2" d="M-1142.52 2325.81h1000v240h-1000z"/><path class="st3" d="M-1142.52 1365.81h1000v200h-1000z"/><path class="st1" d="M0 1565.81h1000v50H0z"/><path class="st2" d="M0 2325.81h1000v240H0z"/><path class="st3" d="M0 1365.81h1000v200H0z"/><path class="st1" d="M1126.37 1565.81h1000v50h-1000z"/><path class="st2" d="M1126.37 2325.81h1000v240h-1000z"/><path class="st3" d="M1126.37 1365.81h1000v200h-1000z"/><path class="st1" d="M2263 1565.81h1000v50H2263z"/><path class="st2" d="M2263 2325.81h1000v240H2263z"/><path class="st3" d="M2263 1365.81h1000v200H2263z"/><path class="st1" d="M3402.5 1565.81h1000v50h-1000z"/><path class="st2" d="M3402.5 2325.81h1000v240h-1000z"/><path class="st3" d="M3402.5 1365.81h1000v200h-1000z"/><path class="st1" d="M4552 1565.81h1000v50H4552z"/><path class="st2" d="M4552 2325.81h1000v240H4552z"/><path class="st3" d="M4552 1365.81h1000v200H4552z"/><path class="st1" d="M5684.47 1565.81h1000v50h-1000z"/><path class="st2" d="M5684.47 2325.81h1000v240h-1000z"/><path class="st3" d="M5684.47 1365.81h1000v200h-1000z"/><path class="st1" d="M10245.07-4046.41h1000v50h-1000z"/><path class="st2" d="M10245.07-3286.41h1000v240h-1000z"/><path class="st3" d="M10245.07-4246.41h1000v200h-1000z"/></g><g id="Icon_sizing" class="st0"><path class="st4" d="M-918.4-1140.97h551.77v551.77H-918.4z"/><path transform="rotate(-180 -642.52 -865.085)" class="st5" d="M-841.41-1217.96h397.79v705.75h-397.79z"/><path class="st6" d="M-873.49-1179.47h461.95v628.76h-461.95z"/><path transform="rotate(-90 -642.52 -865.085)" class="st7" d="M-841.41-1217.96h397.79v705.75h-397.79z"/><path transform="rotate(90 -642.52 -865.085)" class="st8" d="M-873.49-1179.47h461.95v628.76h-461.95z"/><circle class="st9" cx="-642.52" cy="-865.19" r="317.11"/><path class="st4" d="M2487.11-1140.97h551.77v551.77h-551.77z"/><path transform="rotate(-180 2763 -865.085)" class="st5" d="M2564.11-1217.96h397.79v705.75h-397.79z"/><path class="st6" d="M2532.03-1179.47h461.95v628.76h-461.95z"/><path transform="rotate(-90 2763 -865.085)" class="st7" d="M2564.11-1217.96h397.79v705.75h-397.79z"/><path transform="rotate(90 2763 -865.085)" class="st8" d="M2532.03-1179.47h461.95v628.76h-461.95z"/><circle class="st9" cx="2763" cy="-865.19" r="317.11"/><path class="st4" d="M-2069.82-1140.97h551.77v551.77h-551.77z"/><path transform="rotate(-180 -1793.94 -865.085)" class="st5" d="M-1992.83-1217.96h397.79v705.75h-397.79z"/><path class="st6" d="M-2024.91-1179.47h461.95v628.76h-461.95z"/><path transform="rotate(-90 -1793.94 -865.085)" class="st7" d="M-1992.83-1217.96h397.79v705.75h-397.79z"/><path transform="rotate(90 -1793.94 -865.085)" class="st8" d="M-2024.91-1179.47h461.95v628.76h-461.95z"/><circle class="st9" cx="-1793.94" cy="-865.19" r="317.11"/><path class="st4" d="M-2069.82 1695.25h551.77v551.77h-551.77z"/><path transform="rotate(-180 -1793.94 1971.134)" class="st5" d="M-1992.83 1618.26h397.79v705.75h-397.79z"/><path class="st6" d="M-2024.91 1656.75h461.95v628.76h-461.95z"/><path transform="rotate(-90 -1793.94 1971.134)" class="st7" d="M-1992.83 1618.26h397.79v705.75h-397.79z"/><path transform="rotate(90 -1793.94 1971.134)" class="st8" d="M-2024.91 1656.75h461.95v628.76h-461.95z"/><circle class="st9" cx="-1793.94" cy="1971.03" r="317.11"/><path class="st4" d="M-918.4 1695.25h551.77v551.77H-918.4z"/><path transform="rotate(-180 -642.52 1971.134)" class="st5" d="M-841.41 1618.26h397.79v705.75h-397.79z"/><path class="st6" d="M-873.49 1656.75h461.95v628.76h-461.95z"/><path transform="rotate(-90 -642.52 1971.134)" class="st7" d="M-841.41 1618.26h397.79v705.75h-397.79z"/><path transform="rotate(90 -642.52 1971.134)" class="st8" d="M-873.49 1656.75h461.95v628.76h-461.95z"/><circle class="st9" cx="-642.52" cy="1971.03" r="317.11"/><path class="st4" d="M224.11 1695.25h551.77v551.77H224.11z"/><path transform="rotate(-180 500 1971.134)" class="st5" d="M301.11 1618.26H698.9v705.75H301.11z"/><path class="st6" d="M269.03 1656.75h461.95v628.76H269.03z"/><path transform="rotate(-90 500 1971.134)" class="st7" d="M301.11 1618.26H698.9v705.75H301.11z"/><path transform="rotate(90 500 1971.134)" class="st8" d="M269.03 1656.75h461.95v628.76H269.03z"/><circle class="st9" cx="500" cy="1971.03" r="317.11"/><path class="st4" d="M1350.49 1695.25h551.77v551.77h-551.77z"/><path transform="rotate(-180 1626.373 1971.134)" class="st5" d="M1427.48 1618.26h397.79v705.75h-397.79z"/><path class="st6" d="M1395.4 1656.75h461.95v628.76H1395.4z"/><path transform="rotate(-90 1626.373 1971.134)" class="st7" d="M1427.48 1618.26h397.79v705.75h-397.79z"/><path transform="rotate(90 1626.373 1971.134)" class="st8" d="M1395.4 1656.75h461.95v628.76H1395.4z"/><circle class="st9" cx="1626.37" cy="1971.03" r="317.11"/><path class="st4" d="M2487.11 1695.25h551.77v551.77h-551.77z"/><path transform="rotate(-180 2763 1971.134)" class="st5" d="M2564.11 1618.26h397.79v705.75h-397.79z"/><path class="st6" d="M2532.03 1656.75h461.95v628.76h-461.95z"/><path transform="rotate(-90 2763 1971.134)" class="st7" d="M2564.11 1618.26h397.79v705.75h-397.79z"/><path transform="rotate(90 2763 1971.134)" class="st8" d="M2532.03 1656.75h461.95v628.76h-461.95z"/><circle class="st9" cx="2763" cy="1971.03" r="317.11"/><path class="st4" d="M3626.61 1695.25h551.77v551.77h-551.77z"/><path transform="rotate(-180 3902.5 1971.134)" class="st5" d="M3703.61 1618.26h397.79v705.75h-397.79z"/><path class="st6" d="M3671.53 1656.75h461.95v628.76h-461.95z"/><path transform="rotate(-90 3902.5 1971.134)" class="st7" d="M3703.61 1618.26h397.79v705.75h-397.79z"/><path transform="rotate(90 3902.5 1971.134)" class="st8" d="M3671.53 1656.75h461.95v628.76h-461.95z"/><circle class="st9" cx="3902.5" cy="1971.03" r="317.11"/><path class="st4" d="M4776.11 1695.25h551.77v551.77h-551.77z"/><path transform="rotate(-180 5052 1971.134)" class="st5" d="M4853.11 1618.26h397.79v705.75h-397.79z"/><path class="st6" d="M4821.03 1656.75h461.95v628.76h-461.95z"/><path transform="rotate(-90 5052 1971.134)" class="st7" d="M4853.11 1618.26h397.79v705.75h-397.79z"/><path transform="rotate(90 5052 1971.134)" class="st8" d="M4821.03 1656.75h461.95v628.76h-461.95z"/><circle class="st9" cx="5052" cy="1971.03" r="317.11"/><path class="st4" d="M5908.58 1695.25h551.77v551.77h-551.77z"/><path transform="rotate(-180 6184.465 1971.134)" class="st5" d="M5985.57 1618.26h397.79v705.75h-397.79z"/><path class="st6" d="M5953.49 1656.75h461.95v628.76h-461.95z"/><path transform="rotate(-90 6184.465 1971.134)" class="st7" d="M5985.57 1618.26h397.79v705.75h-397.79z"/><path transform="rotate(90 6184.465 1971.134)" class="st8" d="M5953.49 1656.75h461.95v628.76h-461.95z"/><circle class="st9" cx="6184.47" cy="1971.03" r="317.11"/><path class="st4" d="M10469.19-3916.97h551.77v551.77h-551.77z"/><path transform="rotate(-180 10745.073 -3641.085)" class="st5" d="M10546.18-3993.96h397.79v705.75h-397.79z"/><path class="st6" d="M10514.1-3955.47h461.95v628.76h-461.95z"/><path transform="rotate(-90 10745.073 -3641.085)" class="st7" d="M10546.18-3993.96h397.79v705.75h-397.79z"/><path transform="rotate(90 10745.073 -3641.085)" class="st8" d="M10514.1-3955.47h461.95v628.76h-461.95z"/><circle class="st9" cx="10745.07" cy="-3641.19" r="317.11"/><path class="st4" d="M224.11-1140.97h551.77v551.77H224.11z"/><path transform="rotate(-180 500 -865.085)" class="st5" d="M301.11-1217.96H698.9v705.75H301.11z"/><path class="st6" d="M269.03-1179.47h461.95v628.76H269.03z"/><path transform="rotate(-90 500 -865.085)" class="st7" d="M301.11-1217.96H698.9v705.75H301.11z"/><path transform="rotate(90 500 -865.085)" class="st8" d="M269.03-1179.47h461.95v628.76H269.03z"/><circle class="st9" cx="500" cy="-865.19" r="317.11"/><path class="st4" d="M1347.61-1140.97h551.77v551.77h-551.77z"/><path transform="rotate(-180 1623.5 -865.085)" class="st5" d="M1424.61-1217.96h397.79v705.75h-397.79z"/><path class="st6" d="M1392.53-1179.47h461.95v628.76h-461.95z"/><path transform="rotate(-90 1623.5 -865.085)" class="st7" d="M1424.61-1217.96h397.79v705.75h-397.79z"/><path transform="rotate(90 1623.5 -865.085)" class="st8" d="M1392.53-1179.47h461.95v628.76h-461.95z"/><circle class="st9" cx="1623.5" cy="-865.19" r="317.11"/><path transform="rotate(-90 -642.659 -2168.862)" class="st7" d="M-924.48-2668.86h563.64v1000h-563.64z"/><path class="st4" d="M-1022.52-2646.96h759.72v759.72h-759.72z"/><path class="st6" d="M-969.93-2687.6h654.55v890.91h-654.55z"/><path transform="rotate(-180 -642.659 -2247.877)" class="st5" d="M-924.48-2747.88h563.64v1000h-563.64z"/><path transform="rotate(90 -642.659 -2214.317)" class="st8" d="M-969.93-2659.77h654.55v890.91h-654.55z"/><circle class="st9" cx="-642.66" cy="-2242.58" r="474.59"/><path transform="matrix(0 -1 1 0 4931.723 594)" class="st7" d="M2481.04-2668.86h563.64v1000h-563.64z"/><path class="st4" d="M2383-2646.96h759.72v759.72H2383z"/><path class="st6" d="M2435.59-2687.6h654.55v890.91h-654.55z"/><path transform="rotate(-180 2762.861 -2247.877)" class="st5" d="M2481.04-2747.88h563.64v1000h-563.64z"/><path transform="rotate(90 2762.861 -2214.317)" class="st8" d="M2435.59-2659.77h654.55v890.91h-654.55z"/><circle class="st9" cx="2762.86" cy="-2242.58" r="474.59"/><path transform="rotate(-90 -1794.079 -2168.862)" class="st7" d="M-2075.9-2668.86h563.64v1000h-563.64z"/><path class="st4" d="M-2173.94-2646.96h759.72v759.72h-759.72z"/><path class="st6" d="M-2121.35-2687.6h654.55v890.91h-654.55z"/><path transform="rotate(-180 -1794.079 -2247.877)" class="st5" d="M-2075.9-2747.88h563.64v1000h-563.64z"/><path transform="rotate(90 -1794.079 -2214.316)" class="st8" d="M-2121.35-2659.77h654.55v890.91h-654.55z"/><circle class="st9" cx="-1794.08" cy="-2242.58" r="474.59"/><path transform="rotate(-90 -1794.078 678.182)" class="st7" d="M-2075.9 178.18h563.64v1000h-563.64z"/><path class="st4" d="M-2173.94 200.08h759.72V959.8h-759.72z"/><path class="st6" d="M-2121.35 159.44h654.55v890.91h-654.55z"/><path transform="rotate(-180 -1794.079 599.167)" class="st5" d="M-2075.9 99.17h563.64v1000h-563.64z"/><path transform="rotate(90 -1794.079 632.727)" class="st8" d="M-2121.35 187.27h654.55v890.91h-654.55z"/><circle class="st9" cx="-1794.08" cy="604.46" r="474.59"/><path transform="rotate(-90 -642.659 678.182)" class="st7" d="M-924.48 178.18h563.64v1000h-563.64z"/><path class="st4" d="M-1022.52 200.08h759.72V959.8h-759.72z"/><path class="st6" d="M-969.93 159.44h654.55v890.91h-654.55z"/><path transform="rotate(-180 -642.659 599.167)" class="st5" d="M-924.48 99.17h563.64v1000h-563.64z"/><path transform="rotate(90 -642.658 632.727)" class="st8" d="M-969.93 187.27h654.55v890.91h-654.55z"/><circle class="st9" cx="-642.66" cy="604.46" r="474.59"/><path transform="rotate(-90 499.861 678.182)" class="st7" d="M218.04 178.18h563.64v1000H218.04z"/><path class="st4" d="M120 200.08h759.72V959.8H120z"/><path class="st6" d="M172.59 159.44h654.55v890.91H172.59z"/><path transform="rotate(-180 499.861 599.167)" class="st5" d="M218.04 99.17h563.64v1000H218.04z"/><path transform="rotate(90 499.861 632.727)" class="st8" d="M172.59 187.27h654.55v890.91H172.59z"/><circle class="st9" cx="499.86" cy="604.46" r="474.59"/><path transform="rotate(-90 1626.234 678.182)" class="st7" d="M1344.42 178.18h563.64v1000h-563.64z"/><path class="st4" d="M1246.37 200.08h759.72V959.8h-759.72z"/><path class="st6" d="M1298.96 159.44h654.55v890.91h-654.55z"/><path transform="rotate(-180 1626.234 599.167)" class="st5" d="M1344.42 99.17h563.64v1000h-563.64z"/><path transform="rotate(90 1626.234 632.727)" class="st8" d="M1298.96 187.27h654.55v890.91h-654.55z"/><circle class="st9" cx="1626.23" cy="604.46" r="474.59"/><path transform="rotate(-90 2762.861 678.182)" class="st7" d="M2481.04 178.18h563.64v1000h-563.64z"/><path class="st4" d="M2383 200.08h759.72V959.8H2383z"/><path class="st6" d="M2435.59 159.44h654.55v890.91h-654.55z"/><path transform="rotate(-180 2762.861 599.167)" class="st5" d="M2481.04 99.17h563.64v1000h-563.64z"/><path transform="rotate(90 2762.861 632.727)" class="st8" d="M2435.59 187.27h654.55v890.91h-654.55z"/><circle class="st9" cx="2762.86" cy="604.46" r="474.59"/><path transform="rotate(-90 3902.361 678.182)" class="st7" d="M3620.54 178.18h563.64v1000h-563.64z"/><path class="st4" d="M3522.5 200.08h759.72V959.8H3522.5z"/><path class="st6" d="M3575.09 159.44h654.55v890.91h-654.55z"/><path transform="rotate(-180 3902.361 599.167)" class="st5" d="M3620.54 99.17h563.64v1000h-563.64z"/><path transform="rotate(90 3902.361 632.727)" class="st8" d="M3575.09 187.27h654.55v890.91h-654.55z"/><circle class="st9" cx="3902.36" cy="604.46" r="474.59"/><path transform="rotate(-90 5051.861 678.182)" class="st7" d="M4770.04 178.18h563.64v1000h-563.64z"/><path class="st4" d="M4672 200.08h759.72V959.8H4672z"/><path class="st6" d="M4724.59 159.44h654.55v890.91h-654.55z"/><path transform="rotate(-180 5051.861 599.167)" class="st5" d="M4770.04 99.17h563.64v1000h-563.64z"/><path transform="rotate(90 5051.861 632.727)" class="st8" d="M4724.59 187.27h654.55v890.91h-654.55z"/><circle class="st9" cx="5051.86" cy="604.46" r="474.59"/><path transform="rotate(-90 6184.326 678.182)" class="st7" d="M5902.51 178.18h563.64v1000h-563.64z"/><path class="st4" d="M5804.46 200.08h759.72V959.8h-759.72z"/><path class="st6" d="M5857.05 159.44h654.55v890.91h-654.55z"/><path transform="rotate(-180 6184.326 599.167)" class="st5" d="M5902.51 99.17h563.64v1000h-563.64z"/><path transform="rotate(90 6184.326 632.727)" class="st8" d="M5857.05 187.27h654.55v890.91h-654.55z"/><circle class="st9" cx="6184.33" cy="604.46" r="474.59"/><path transform="rotate(-90 10744.934 -4948.876)" class="st7" d="M10463.12-5448.88h563.64v1000h-563.64z"/><path class="st4" d="M10365.07-5426.97h759.72v759.72h-759.72z"/><path class="st6" d="M10417.66-5467.62h654.55v890.91h-654.55z"/><path transform="rotate(-180 10744.934 -5027.89)" class="st5" d="M10463.12-5527.89h563.64v1000h-563.64z"/><path transform="rotate(90 10744.934 -4994.33)" class="st8" d="M10417.66-5439.78h654.55v890.91h-654.55z"/><circle class="st9" cx="10744.93" cy="-5022.59" r="474.59"/><path transform="rotate(-90 499.861 -2168.862)" class="st7" d="M218.04-2668.86h563.64v1000H218.04z"/><path class="st4" d="M120-2646.96h759.72v759.72H120z"/><path class="st6" d="M172.59-2687.6h654.55v890.91H172.59z"/><path transform="rotate(-180 499.861 -2247.877)" class="st5" d="M218.04-2747.88h563.64v1000H218.04z"/><path transform="rotate(90 499.861 -2214.317)" class="st8" d="M172.59-2659.77h654.55v890.91H172.59z"/><circle class="st9" cx="499.86" cy="-2242.58" r="474.59"/><path transform="rotate(-90 1623.361 -2168.862)" class="st7" d="M1341.54-2668.86h563.64v1000h-563.64z"/><path class="st4" d="M1243.5-2646.96h759.72v759.72H1243.5z"/><path class="st6" d="M1296.09-2687.6h654.55v890.91h-654.55z"/><path transform="rotate(-180 1623.361 -2247.877)" class="st5" d="M1341.54-2747.88h563.64v1000h-563.64z"/><path transform="rotate(90 1623.361 -2214.317)" class="st8" d="M1296.09-2659.77h654.55v890.91h-654.55z"/><circle class="st9" cx="1623.36" cy="-2242.58" r="474.59"/><path class="st4" d="M1347.61-3916.97h551.77v551.77h-551.77z"/><path transform="rotate(-180 1623.5 -3641.085)" class="st5" d="M1424.61-3993.96h397.79v705.75h-397.79z"/><path class="st6" d="M1392.53-3955.47h461.95v628.76h-461.95z"/><path transform="rotate(-90 1623.5 -3641.085)" class="st7" d="M1424.61-3993.96h397.79v705.75h-397.79z"/><path transform="rotate(90 1623.5 -3641.085)" class="st8" d="M1392.53-3955.47h461.95v628.76h-461.95z"/><circle class="st9" cx="1623.5" cy="-3641.19" r="317.11"/><path class="st4" d="M216.01-3916.97h551.77v551.77H216.01z"/><path transform="rotate(-180 491.89 -3641.085)" class="st5" d="M293-3993.96h397.79v705.75H293z"/><path class="st6" d="M260.92-3955.47h461.95v628.76H260.92z"/><path transform="rotate(-90 491.89 -3641.085)" class="st7" d="M293-3993.96h397.79v705.75H293z"/><path transform="rotate(90 491.89 -3641.085)" class="st8" d="M260.92-3955.47h461.95v628.76H260.92z"/><circle class="st9" cx="491.89" cy="-3641.19" r="317.11"/><path class="st4" d="M3626.61-3916.97h551.77v551.77h-551.77z"/><path transform="rotate(-180 3902.5 -3641.085)" class="st5" d="M3703.61-3993.96h397.79v705.75h-397.79z"/><path class="st6" d="M3671.53-3955.47h461.95v628.76h-461.95z"/><path transform="rotate(-90 3902.5 -3641.085)" class="st7" d="M3703.61-3993.96h397.79v705.75h-397.79z"/><path transform="rotate(90 3902.5 -3641.085)" class="st8" d="M3671.53-3955.47h461.95v628.76h-461.95z"/><circle class="st9" cx="3902.5" cy="-3641.19" r="317.11"/><path class="st4" d="M4776.11-3916.97h551.77v551.77h-551.77z"/><path transform="rotate(-180 5052 -3641.085)" class="st5" d="M4853.11-3993.96h397.79v705.75h-397.79z"/><path class="st6" d="M4821.03-3955.47h461.95v628.76h-461.95z"/><path transform="rotate(-90 5052 -3641.085)" class="st7" d="M4853.11-3993.96h397.79v705.75h-397.79z"/><path transform="rotate(90 5052 -3641.085)" class="st8" d="M4821.03-3955.47h461.95v628.76h-461.95z"/><circle class="st9" cx="5052" cy="-3641.19" r="317.11"/><path class="st4" d="M2487.11-3916.97h551.77v551.77h-551.77z"/><path transform="rotate(-180 2763 -3641.085)" class="st5" d="M2564.11-3993.96h397.79v705.75h-397.79z"/><path class="st6" d="M2532.03-3955.47h461.95v628.76h-461.95z"/><path transform="rotate(-90 2763 -3641.085)" class="st7" d="M2564.11-3993.96h397.79v705.75h-397.79z"/><path transform="rotate(90 2763 -3641.085)" class="st8" d="M2532.03-3955.47h461.95v628.76h-461.95z"/><circle class="st9" cx="2763" cy="-3641.19" r="317.11"/><path class="st4" d="M5908.58-3916.97h551.77v551.77h-551.77z"/><path transform="rotate(-180 6184.465 -3641.085)" class="st5" d="M5985.57-3993.96h397.79v705.75h-397.79z"/><path class="st6" d="M5953.49-3955.47h461.95v628.76h-461.95z"/><path transform="rotate(-90 6184.465 -3641.085)" class="st7" d="M5985.57-3993.96h397.79v705.75h-397.79z"/><path transform="rotate(90 6184.465 -3641.085)" class="st8" d="M5953.49-3955.47h461.95v628.76h-461.95z"/><circle class="st9" cx="6184.47" cy="-3641.19" r="317.11"/><path class="st4" d="M7049.11-3916.97h551.77v551.77h-551.77z"/><path transform="rotate(-180 7325 -3641.085)" class="st5" d="M7126.11-3993.96h397.79v705.75h-397.79z"/><path class="st6" d="M7094.03-3955.47h461.95v628.76h-461.95z"/><path transform="rotate(-90 7325 -3641.085)" class="st7" d="M7126.11-3993.96h397.79v705.75h-397.79z"/><path transform="rotate(90 7325 -3641.085)" class="st8" d="M7094.03-3955.47h461.95v628.76h-461.95z"/><circle class="st9" cx="7325" cy="-3641.19" r="317.11"/><path class="st4" d="M8180.61-3916.97h551.77v551.77h-551.77z"/><path transform="rotate(-180 8456.5 -3641.085)" class="st5" d="M8257.61-3993.96h397.79v705.75h-397.79z"/><path class="st6" d="M8225.53-3955.47h461.95v628.76h-461.95z"/><path transform="rotate(-90 8456.5 -3641.085)" class="st7" d="M8257.61-3993.96h397.79v705.75h-397.79z"/><path transform="rotate(90 8456.5 -3641.085)" class="st8" d="M8225.53-3955.47h461.95v628.76h-461.95z"/><circle class="st9" cx="8456.5" cy="-3641.19" r="317.11"/><path class="st4" d="M9306.85-3916.97h551.77v551.77h-551.77z"/><path transform="rotate(-180 9582.734 -3641.085)" class="st5" d="M9383.84-3993.96h397.79v705.75h-397.79z"/><path class="st6" d="M9351.76-3955.47h461.95v628.76h-461.95z"/><path transform="rotate(-90 9582.734 -3641.085)" class="st7" d="M9383.84-3993.96h397.79v705.75h-397.79z"/><path transform="rotate(90 9582.734 -3641.085)" class="st8" d="M9351.76-3955.47h461.95v628.76h-461.95z"/><circle class="st9" cx="9582.73" cy="-3641.19" r="317.11"/><path class="st4" d="M5908.58-1140.97h551.77v551.77h-551.77z"/><path transform="rotate(-180 6184.465 -865.085)" class="st5" d="M5985.57-1217.96h397.79v705.75h-397.79z"/><path class="st6" d="M5953.49-1179.47h461.95v628.76h-461.95z"/><path transform="rotate(-90 6184.465 -865.085)" class="st7" d="M5985.57-1217.96h397.79v705.75h-397.79z"/><path transform="rotate(90 6184.465 -865.085)" class="st8" d="M5953.49-1179.47h461.95v628.76h-461.95z"/><circle class="st9" cx="6184.47" cy="-865.19" r="317.11"/><path class="st4" d="M7041.64-1140.97h551.77v551.77h-551.77z"/><path transform="rotate(-180 7317.522 -865.085)" class="st5" d="M7118.63-1217.96h397.79v705.75h-397.79z"/><path class="st6" d="M7086.55-1179.47h461.95v628.76h-461.95z"/><path transform="rotate(-90 7317.522 -865.085)" class="st7" d="M7118.63-1217.96h397.79v705.75h-397.79z"/><path transform="rotate(90 7317.522 -865.085)" class="st8" d="M7086.55-1179.47h461.95v628.76h-461.95z"/><circle class="st9" cx="7317.52" cy="-865.19" r="317.11"/><path class="st4" d="M8180.61-1140.97h551.77v551.77h-551.77z"/><path transform="rotate(-180 8456.5 -865.085)" class="st5" d="M8257.61-1217.96h397.79v705.75h-397.79z"/><path class="st6" d="M8225.53-1179.47h461.95v628.76h-461.95z"/><path transform="rotate(-90 8456.5 -865.085)" class="st7" d="M8257.61-1217.96h397.79v705.75h-397.79z"/><path transform="rotate(90 8456.5 -865.085)" class="st8" d="M8225.53-1179.47h461.95v628.76h-461.95z"/><circle class="st9" cx="8456.5" cy="-865.19" r="317.11"/><path class="st4" d="M4776.11-1140.97h551.77v551.77h-551.77z"/><path transform="rotate(-180 5052 -865.085)" class="st5" d="M4853.11-1217.96h397.79v705.75h-397.79z"/><path class="st6" d="M4821.03-1179.47h461.95v628.76h-461.95z"/><path transform="rotate(-90 5052 -865.085)" class="st7" d="M4853.11-1217.96h397.79v705.75h-397.79z"/><path transform="rotate(90 5052 -865.085)" class="st8" d="M4821.03-1179.47h461.95v628.76h-461.95z"/><circle class="st9" cx="5052" cy="-865.19" r="317.11"/><path class="st4" d="M10469.19-1140.97h551.77v551.77h-551.77z"/><path transform="rotate(-180 10745.073 -865.085)" class="st5" d="M10546.18-1217.96h397.79v705.75h-397.79z"/><path class="st6" d="M10514.1-1179.47h461.95v628.76h-461.95z"/><path transform="rotate(-90 10745.073 -865.085)" class="st7" d="M10546.18-1217.96h397.79v705.75h-397.79z"/><path transform="rotate(90 10745.073 -865.085)" class="st8" d="M10514.1-1179.47h461.95v628.76h-461.95z"/><circle class="st9" cx="10745.07" cy="-865.19" r="317.11"/><path class="st4" d="M3626.61-1140.97h551.77v551.77h-551.77z"/><path transform="rotate(-180 3902.5 -865.085)" class="st5" d="M3703.61-1217.96h397.79v705.75h-397.79z"/><path class="st6" d="M3671.53-1179.47h461.95v628.76h-461.95z"/><path transform="rotate(-90 3902.5 -865.085)" class="st7" d="M3703.61-1217.96h397.79v705.75h-397.79z"/><path transform="rotate(90 3902.5 -865.085)" class="st8" d="M3671.53-1179.47h461.95v628.76h-461.95z"/><circle class="st9" cx="3902.5" cy="-865.19" r="317.11"/><path class="st4" d="M9306.85-1140.97h551.77v551.77h-551.77z"/><path transform="rotate(-180 9582.734 -865.085)" class="st5" d="M9383.84-1217.96h397.79v705.75h-397.79z"/><path class="st6" d="M9351.76-1179.47h461.95v628.76h-461.95z"/><path transform="rotate(-90 9582.734 -865.085)" class="st7" d="M9383.84-1217.96h397.79v705.75h-397.79z"/><path transform="rotate(90 9582.734 -865.085)" class="st8" d="M9351.76-1179.47h461.95v628.76h-461.95z"/><circle class="st9" cx="9582.73" cy="-865.19" r="317.11"/><path transform="rotate(-90 1626.234 -4948.876)" class="st7" d="M1344.42-5448.88h563.64v1000h-563.64z"/><path class="st4" d="M1246.37-5426.97h759.72v759.72h-759.72z"/><path class="st6" d="M1298.96-5467.62h654.55v890.91h-654.55z"/><path transform="rotate(-180 1626.234 -5027.89)" class="st5" d="M1344.42-5527.89h563.64v1000h-563.64z"/><path transform="rotate(90 1626.234 -4994.33)" class="st8" d="M1298.96-5439.78h654.55v890.91h-654.55z"/><circle class="st9" cx="1626.23" cy="-5022.59" r="474.59"/><path transform="rotate(-90 499.861 -4948.876)" class="st7" d="M218.04-5448.88h563.64v1000H218.04z"/><path class="st4" d="M120-5426.97h759.72v759.72H120z"/><path class="st6" d="M172.59-5467.62h654.55v890.91H172.59z"/><path transform="rotate(-180 499.861 -5027.89)" class="st5" d="M218.04-5527.89h563.64v1000H218.04z"/><path transform="rotate(90 499.861 -4994.33)" class="st8" d="M172.59-5439.78h654.55v890.91H172.59z"/><circle class="st9" cx="499.86" cy="-5022.59" r="474.59"/><path transform="rotate(-90 3902.36 -4948.875)" class="st7" d="M3620.54-5448.88h563.64v1000h-563.64z"/><path class="st4" d="M3522.5-5426.97h759.72v759.72H3522.5z"/><path class="st6" d="M3575.09-5467.62h654.55v890.91h-654.55z"/><path transform="rotate(-180 3902.361 -5027.89)" class="st5" d="M3620.54-5527.89h563.64v1000h-563.64z"/><path transform="rotate(90 3902.361 -4994.33)" class="st8" d="M3575.09-5439.78h654.55v890.91h-654.55z"/><circle class="st9" cx="3902.36" cy="-5022.59" r="474.59"/><path transform="rotate(-90 5051.86 -4948.875)" class="st7" d="M4770.04-5448.88h563.64v1000h-563.64z"/><path class="st4" d="M4672-5426.97h759.72v759.72H4672z"/><path class="st6" d="M4724.59-5467.62h654.55v890.91h-654.55z"/><path transform="rotate(-180 5051.861 -5027.89)" class="st5" d="M4770.04-5527.89h563.64v1000h-563.64z"/><path transform="rotate(90 5051.861 -4994.33)" class="st8" d="M4724.59-5439.78h654.55v890.91h-654.55z"/><circle class="st9" cx="5051.86" cy="-5022.59" r="474.59"/><path transform="rotate(-90 2762.861 -4948.876)" class="st7" d="M2481.04-5448.88h563.64v1000h-563.64z"/><path class="st4" d="M2383-5426.97h759.72v759.72H2383z"/><path class="st6" d="M2435.59-5467.62h654.55v890.91h-654.55z"/><path transform="rotate(-180 2762.861 -5027.89)" class="st5" d="M2481.04-5527.89h563.64v1000h-563.64z"/><path transform="rotate(90 2762.861 -4994.33)" class="st8" d="M2435.59-5439.78h654.55v890.91h-654.55z"/><circle class="st9" cx="2762.86" cy="-5022.59" r="474.59"/><path transform="rotate(-90 6184.326 -4948.876)" class="st7" d="M5902.51-5448.88h563.64v1000h-563.64z"/><path class="st4" d="M5804.46-5426.97h759.72v759.72h-759.72z"/><path class="st6" d="M5857.05-5467.62h654.55v890.91h-654.55z"/><path transform="rotate(-180 6184.326 -5027.89)" class="st5" d="M5902.51-5527.89h563.64v1000h-563.64z"/><path transform="rotate(90 6184.326 -4994.33)" class="st8" d="M5857.05-5439.78h654.55v890.91h-654.55z"/><circle class="st9" cx="6184.33" cy="-5022.59" r="474.59"/><path transform="rotate(-90 7324.86 -4948.875)" class="st7" d="M7043.04-5448.88h563.64v1000h-563.64z"/><path class="st4" d="M6945-5426.97h759.72v759.72H6945z"/><path class="st6" d="M6997.59-5467.62h654.55v890.91h-654.55z"/><path transform="rotate(-180 7324.861 -5027.89)" class="st5" d="M7043.04-5527.89h563.64v1000h-563.64z"/><path transform="rotate(90 7324.861 -4994.33)" class="st8" d="M6997.59-5439.78h654.55v890.91h-654.55z"/><circle class="st9" cx="7324.86" cy="-5022.59" r="474.59"/><path transform="rotate(-90 8456.36 -4948.875)" class="st7" d="M8174.54-5448.88h563.64v1000h-563.64z"/><path class="st4" d="M8076.5-5426.97h759.72v759.72H8076.5z"/><path class="st6" d="M8129.09-5467.62h654.55v890.91h-654.55z"/><path transform="rotate(-180 8456.361 -5027.89)" class="st5" d="M8174.54-5527.89h563.64v1000h-563.64z"/><path transform="rotate(90 8456.361 -4994.33)" class="st8" d="M8129.09-5439.78h654.55v890.91h-654.55z"/><circle class="st9" cx="8456.36" cy="-5022.59" r="474.59"/><path transform="rotate(-90 9582.595 -4948.876)" class="st7" d="M9300.78-5448.88h563.64v1000h-563.64z"/><path class="st4" d="M9202.73-5426.97h759.72v759.72h-759.72z"/><path class="st6" d="M9255.32-5467.62h654.55v890.91h-654.55z"/><path transform="rotate(-180 9582.595 -5027.89)" class="st5" d="M9300.78-5527.89h563.64v1000h-563.64z"/><path transform="rotate(90 9582.595 -4994.33)" class="st8" d="M9255.32-5439.78h654.55v890.91h-654.55z"/><circle class="st9" cx="9582.59" cy="-5022.59" r="474.59"/><path transform="rotate(-90 6184.326 -2168.862)" class="st7" d="M5902.51-2668.86h563.64v1000h-563.64z"/><path class="st4" d="M5804.46-2646.96h759.72v759.72h-759.72z"/><path class="st6" d="M5857.05-2687.6h654.55v890.91h-654.55z"/><path transform="rotate(-180 6184.326 -2247.877)" class="st5" d="M5902.51-2747.88h563.64v1000h-563.64z"/><path transform="rotate(90 6184.326 -2214.316)" class="st8" d="M5857.05-2659.77h654.55v890.91h-654.55z"/><circle class="st9" cx="6184.33" cy="-2242.58" r="474.59"/><path transform="rotate(-90 7324.86 -2168.862)" class="st7" d="M7043.04-2668.86h563.64v1000h-563.64z"/><path class="st4" d="M6945-2646.96h759.72v759.72H6945z"/><path class="st6" d="M6997.59-2687.6h654.55v890.91h-654.55z"/><path transform="rotate(-180 7324.861 -2247.877)" class="st5" d="M7043.04-2747.88h563.64v1000h-563.64z"/><path transform="rotate(90 7324.861 -2214.317)" class="st8" d="M6997.59-2659.77h654.55v890.91h-654.55z"/><circle class="st9" cx="7324.86" cy="-2242.58" r="474.59"/><path transform="rotate(-90 8456.36 -2168.862)" class="st7" d="M8174.54-2668.86h563.64v1000h-563.64z"/><path class="st4" d="M8076.5-2646.96h759.72v759.72H8076.5z"/><path class="st6" d="M8129.09-2687.6h654.55v890.91h-654.55z"/><path transform="rotate(-180 8456.361 -2247.877)" class="st5" d="M8174.54-2747.88h563.64v1000h-563.64z"/><path transform="rotate(90 8456.361 -2214.317)" class="st8" d="M8129.09-2659.77h654.55v890.91h-654.55z"/><circle class="st9" cx="8456.36" cy="-2242.58" r="474.59"/><path transform="rotate(-90 5051.861 -2168.862)" class="st7" d="M4770.04-2668.86h563.64v1000h-563.64z"/><path class="st4" d="M4672-2646.96h759.72v759.72H4672z"/><path class="st6" d="M4724.59-2687.6h654.55v890.91h-654.55z"/><path transform="rotate(-180 5051.861 -2247.877)" class="st5" d="M4770.04-2747.88h563.64v1000h-563.64z"/><path transform="rotate(90 5051.861 -2214.317)" class="st8" d="M4724.59-2659.77h654.55v890.91h-654.55z"/><circle class="st9" cx="5051.86" cy="-2242.58" r="474.59"/><path transform="rotate(-90 10744.934 -2168.862)" class="st7" d="M10463.12-2668.86h563.64v1000h-563.64z"/><path class="st4" d="M10365.07-2646.96h759.72v759.72h-759.72z"/><path class="st6" d="M10417.66-2687.6h654.55v890.91h-654.55z"/><path transform="rotate(-180 10744.934 -2247.877)" class="st5" d="M10463.12-2747.88h563.64v1000h-563.64z"/><path transform="rotate(90 10744.934 -2214.317)" class="st8" d="M10417.66-2659.77h654.55v890.91h-654.55z"/><circle class="st9" cx="10744.93" cy="-2242.58" r="474.59"/><path transform="rotate(-90 3902.361 -2168.862)" class="st7" d="M3620.54-2668.86h563.64v1000h-563.64z"/><path class="st4" d="M3522.5-2646.96h759.72v759.72H3522.5z"/><path class="st6" d="M3575.09-2687.6h654.55v890.91h-654.55z"/><path transform="rotate(-180 3902.361 -2247.877)" class="st5" d="M3620.54-2747.88h563.64v1000h-563.64z"/><path transform="rotate(90 3902.361 -2214.317)" class="st8" d="M3575.09-2659.77h654.55v890.91h-654.55z"/><circle class="st9" cx="3902.36" cy="-2242.58" r="474.59"/><path transform="rotate(-90 9582.595 -2168.862)" class="st7" d="M9300.78-2668.86h563.64v1000h-563.64z"/><path class="st4" d="M9202.73-2646.96h759.72v759.72h-759.72z"/><path class="st6" d="M9255.32-2687.6h654.55v890.91h-654.55z"/><path transform="rotate(-180 9582.595 -2247.877)" class="st5" d="M9300.78-2747.88h563.64v1000h-563.64z"/><path transform="rotate(90 9582.595 -2214.316)" class="st8" d="M9255.32-2659.77h654.55v890.91h-654.55z"/><circle class="st9" cx="9582.59" cy="-2242.58" r="474.59"/><path transform="rotate(-90 -1794.079 -4948.876)" class="st7" d="M-2075.9-5448.88h563.64v1000h-563.64z"/><path class="st4" d="M-2173.94-5426.97h759.72v759.72h-759.72z"/><path class="st6" d="M-2121.35-5467.62h654.55v890.91h-654.55z"/><path transform="rotate(-180 -1794.079 -5027.89)" class="st5" d="M-2075.9-5527.89h563.64v1000h-563.64z"/><path transform="rotate(90 -1794.079 -4994.33)" class="st8" d="M-2121.35-5439.78h654.55v890.91h-654.55z"/><circle class="st9" cx="-1794.08" cy="-5022.59" r="474.59"/><path transform="rotate(-90 -655.213 -4948.876)" class="st7" d="M-937.03-5448.88h563.64v1000h-563.64z"/><path class="st4" d="M-1035.08-5426.97h759.72v759.72h-759.72z"/><path class="st6" d="M-982.49-5467.62h654.55v890.91h-654.55z"/><path transform="rotate(-180 -655.213 -5027.89)" class="st5" d="M-937.03-5527.89h563.64v1000h-563.64z"/><path transform="rotate(90 -655.213 -4994.33)" class="st8" d="M-982.49-5439.78h654.55v890.91h-654.55z"/><circle class="st9" cx="-655.21" cy="-5022.59" r="474.59"/><path class="st4" d="M-2069.82-3916.97h551.77v551.77h-551.77z"/><path transform="rotate(-180 -1793.94 -3641.085)" class="st5" d="M-1992.83-3993.96h397.79v705.75h-397.79z"/><path class="st6" d="M-2024.91-3955.47h461.95v628.76h-461.95z"/><path transform="rotate(-90 -1793.94 -3641.085)" class="st7" d="M-1992.83-3993.96h397.79v705.75h-397.79z"/><path transform="rotate(90 -1793.94 -3641.085)" class="st8" d="M-2024.91-3955.47h461.95v628.76h-461.95z"/><circle class="st9" cx="-1793.94" cy="-3641.19" r="317.11"/><path class="st4" d="M-918.4-3916.97h551.77v551.77H-918.4z"/><path transform="rotate(-180 -642.52 -3641.085)" class="st5" d="M-841.41-3993.96h397.79v705.75h-397.79z"/><path class="st10" d="M-873.49-3955.47h461.95v628.76h-461.95z"/><path transform="rotate(-90 -642.52 -3641.085)" class="st11" d="M-841.41-3993.96h397.79v705.75h-397.79z"/><path transform="rotate(90 -642.52 -3641.085)" class="st12" d="M-873.49-3955.47h461.95v628.76h-461.95z"/><circle class="st13" cx="-642.52" cy="-3641.19" r="317.11"/></g><g id="Icon"><path d="M298.83 794.38h394.76v70H298.83zM298.83 646.78h394.76v70H298.83zM298.83 499.18h394.76v70H298.83z"/><path d="M755.57 241.74h-26.23v67.32c0 .9-.01 1.79-.04 2.68h26.15c.04.04.09.08.13.13v666.81c-.04.04-.08.09-.12.12H244.04c-.04-.04-.09-.08-.12-.13V311.86c.04-.04.08-.09.12-.12h26.15c-.02-.89-.04-1.78-.04-2.68v-67.32H243.9c-38.5 0-70 31.5-70 70V978.8c0 38.5 31.5 70 70 70h511.67c38.5 0 70-31.5 70-70V311.74c0-38.5-31.5-70-70-70z"/><path d="M370.13 339.07h259.2c16.5 0 30-13.5 30-30v-78.98c0-16.5-13.5-30-30-30h-44v-82.02c0-16.5-13.5-30-30-30h-111.2c-16.5 0-30 13.5-30 30v82.02h-44c-16.5 0-30 13.5-30 30v78.98c0 16.5 13.5 30 30 30zm129.37-205.5c19.33 0 35 15.67 35 35s-15.67 35-35 35-35-15.67-35-35 15.67-35 35-35z"/></g></svg>